<svg xmlns="http://www.w3.org/2000/svg" width="20" height="20" viewBox="0 0 20 20" fill="none">
        <!--Навигация в хэдере-->
        <path id="home" d="M3.95353 8.61072L10.4175 3.54689C11.3483 2.8177 12.6517 2.8177 13.5825 3.54689L20.0465 8.61072C20.7843 9.18877 20.9893 10.0491 20.9996 11.0435C21.0001 11.0974 20.9984 11.1495 20.9943 11.2033C20.9525 11.7548 20.6634 15.1249 19.5949 18.9084C19.2173 19.9615 18.3289 21 17.1067 21H15.918C15.1777 21 14.4713 20.3956 14.4713 19.65L14.5776 16.846C14.5776 15.4122 13.4236 14.2498 12 14.2498C10.5764 14.2498 9.42239 15.4122 9.42239 16.846L9.54168 19.65C9.54168 20.3956 8.82229 21 8.08203 21H6.89335C5.6711 21 4.78269 19.9615 4.40511 18.9084C3.33663 15.1249 3.0475 11.7548 3.00568 11.2033C3.0016 11.1495 2.99986 11.0974 3.00041 11.0435C3.01068 10.0491 3.21566 9.18877 3.95353 8.61072Z" fill="currentColor"/>
        <g id="order">
                <path d="M14 20.9617C11.4757 21.0582 9.16166 20.9724 6.23865 20.7048C5.19543 20.6092 4.36239 19.736 4.26588 18.6277C3.87042 14.0861 3.94716 10.903 4.292 6.41419C4.37877 5.28469 5.21856 4.38258 6.28078 4.28634C10.4928 3.90469 13.4667 3.9038 17.7331 4.28821C18.7928 4.38368 19.6326 5.28098 19.7203 6.4076C19.9822 9.77112 20.0688 12.3867 19.9433 15.3485M14 20.9617L19.9433 15.3485M14 20.9617V17.8485C14 16.4678 15.1193 15.3485 16.5 15.3485H19.9433M8 3V5.5M16 3V5.5" stroke="currentColor" stroke-width="1.5" stroke-linecap="round"/>
                <path d="M8 9.5H16" stroke="currentColor" stroke-width="1.5" stroke-linecap="round"/>
                <path d="M8 13H13" stroke="currentColor" stroke-width="1.5" stroke-linecap="round"/>
        </g>
        <g id="history">
                <circle cx="12" cy="12" r="9" stroke="currentColor" stroke-width="1.5"/>
                <path d="M12 6.5V11.9586C12 11.9851 11.9895 12.0105 11.9707 12.0293L9 15" stroke="currentColor" stroke-width="1.5" stroke-linecap="round"/>
        </g>
        <g id="bills">
                <path d="M18.5 3C19.4665 3 20.5 3.5 20.5 4.78736V9.10674C20.5 9.38877 20.2761 9.61741 20 9.61741H17M18.5 3C17.5335 3 17 3.80023 17 4.78736V9.61741M18.5 3H6C4.61929 3 3.5 4.14318 3.5 5.55337V19.6891C3.5 20.1142 3.98497 20.3505 4.31235 20.085L5.63161 19.0149C5.83843 18.8471 6.13841 18.872 6.3156 19.0716L7.87835 20.8322C8.07697 21.0559 8.42303 21.0559 8.62165 20.8322L10.1284 19.1347C10.327 18.911 10.673 18.911 10.8716 19.1347L12.3293 20.777C12.5445 21.0194 12.9262 20.9957 13.1106 20.7285L14.1943 19.1588C14.3599 18.919 14.6908 18.8708 14.9163 19.0537L16.1877 20.085C16.515 20.3505 17 20.1142 17 19.6891V9.61741" stroke="currentColor" stroke-width="1.5"/>
                <path d="M6.75 8.5H13.75" stroke="currentColor" stroke-width="1.5" stroke-linecap="round"/>
                <path d="M6.75 11.5H13.75" stroke="currentColor" stroke-width="1.5" stroke-linecap="round"/>
                <path d="M6.75 14.5H11.5" stroke="currentColor" stroke-width="1.5" stroke-linecap="round"/>
        </g>


        <!--Навигация по категориям-->

        <path id="coffee" fill-rule="evenodd" clip-rule="evenodd" d="M8.29688 5.40494L10.0059 2.31035C10.1246 2.12318 10.2982 2.00315 10.5625 2H22.4375C22.6666 2.00019 22.8903 2.12492 22.9941 2.31035L24.7031 5.40494H25.875C26.2022 5.40497 26.5 5.67531 26.5 5.97243V9.37738C26.5 9.67451 26.2022 9.94484 25.875 9.94487H24.8887L23.375 29.4768C23.3506 29.7589 23.0616 30 22.75 30H10.25C9.93841 30.0008 9.64937 29.7589 9.625 29.4768L8.11131 9.94487H7.125C6.79775 9.94484 6.50003 9.67451 6.5 9.37738V5.97243C6.50003 5.67531 6.79775 5.40497 7.125 5.40494H8.29688ZM22.0566 3.13501H10.9434L9.69336 5.40497H23.3066L22.0566 3.13501ZM7.75 6.54004H25.25V8.81H7.75V6.54004ZM23.6289 9.94482H9.37109L9.83984 16.0624H12.5742C13.4074 14.8783 14.8427 14.0762 16.5 14.0762C18.1573 14.0762 19.5926 14.8783 20.4258 16.0624H23.1602L23.6289 9.94482ZM16.5 15.2112C17.8296 15.2112 18.9733 15.8898 19.5469 16.887C19.6507 17.0725 19.8744 17.1972 20.1035 17.1974H23.0625L22.8477 19.4674H20.1035C19.8764 19.4674 19.6533 19.5867 19.5469 19.7688C18.9733 20.7661 17.8296 21.4536 16.5 21.4536C15.1704 21.4536 14.0267 20.7661 13.4531 19.7688C13.3467 19.5867 13.1236 19.4659 12.8965 19.4674H10.1523L9.9375 17.1974H12.8965C13.1256 17.1972 13.3493 17.0725 13.4531 16.887C14.0267 15.8898 15.1704 15.2112 16.5 15.2112ZM12.584 20.6023H10.25L10.8262 28.865H22.1738L22.75 20.6023H20.416C19.5816 21.7805 18.1525 22.5885 16.5 22.5885C14.8475 22.5885 13.4184 21.7805 12.584 20.6023Z" fill="currentColor"/>

        <g id="beverages">
                <path fill-rule="evenodd" clip-rule="evenodd" d="M11.8605 4.07153V11.9121L14.3997 14.2426C14.8641 14.6569 15.2667 15.4596 15.2667 16.0292V27.9285C15.2667 29.0679 14.121 30 12.7276 30H6.03913C4.6457 30 3.5 29.0679 3.5 27.9285V16.0292C3.5 15.4596 3.90254 14.6569 4.36702 14.2685L6.90615 11.9121V4.07153H11.8605ZM12.7276 28.9642C13.4397 28.9642 14.0281 28.4981 14.0281 27.9284H14.059V16.055C14.059 15.7443 13.7804 15.2005 13.5326 14.9934L13.5017 14.9675L13.4707 14.9416L10.9316 12.5853L10.6219 12.3004V11.912V5.10718H8.14473V11.912V12.3004L7.83508 12.5853L5.32692 14.9157L5.29596 14.9416L5.26499 14.9675C4.98631 15.2005 4.73859 15.7184 4.73859 16.0291V27.9284C4.73859 28.4981 5.32692 28.9642 6.03912 28.9642H12.7276Z" fill="currentColor"/>
                <path d="M7.2902 3.03575H11.6253C11.9659 3.03575 12.2446 2.8027 12.2446 2.51787C12.2446 2.23304 11.9659 2 11.6253 2H7.2902C6.94958 2 6.6709 2.23304 6.6709 2.51787C6.6709 2.8027 6.94958 3.03575 7.2902 3.03575Z" fill="currentColor"/>
                <path fill-rule="evenodd" clip-rule="evenodd" d="M7.21565 17.4431H11.5507C12.232 17.4431 12.7893 17.9092 12.7893 18.4789V23.9165C12.7893 24.4862 12.232 24.9523 11.5507 24.9523H7.21565C6.53442 24.9523 5.97705 24.4862 5.97705 23.9165V18.4789C5.97705 17.9092 6.53442 17.4431 7.21565 17.4431ZM7.21564 23.9164H11.5507V18.4788H7.21564V23.9164Z" fill="currentColor"/>
                <path fill-rule="evenodd" clip-rule="evenodd" d="M26.9094 12.8665C26.7546 12.6075 26.3211 12.4263 25.9805 12.4263H20.0042C19.6636 12.4263 19.2301 12.6334 19.0753 12.8665C19.0299 12.9375 18.9804 13.0143 18.9273 13.0965C17.5697 15.2015 13.9337 20.839 19.4469 23.5554C19.6922 23.6807 19.9555 23.786 20.2183 23.8912L20.2184 23.8912C20.5527 24.0249 20.8862 24.1582 21.1809 24.3322C21.6144 24.5911 22.1099 24.9795 22.3576 25.4456V28.6461H20.4997C20.1591 28.6461 19.8804 28.8791 19.8804 29.164C19.8804 29.4488 20.1591 29.6818 20.4997 29.6818H25.4541C25.7947 29.6818 26.0734 29.4488 26.0734 29.164C26.0734 28.8791 25.7947 28.6461 25.4541 28.6461H23.5962V25.4974C23.8439 25.0054 24.3393 24.6429 24.7728 24.384C25.1104 24.1681 25.4989 24.0162 25.8812 23.8666C26.095 23.783 26.3069 23.7001 26.5069 23.6072C32.0355 20.8877 28.4748 15.3167 27.0903 13.1507C27.0247 13.0481 26.964 12.9531 26.9094 12.8665ZM19.7147 14.1102L19.7147 14.1102C19.8681 13.8733 20.0086 13.6564 20.1282 13.4619H25.8877C26.0266 13.6878 26.2321 13.9851 26.463 14.3192L26.463 14.3192C27.1585 15.3255 28.0846 16.6655 28.1171 17.3926C28.1326 17.4832 28.1481 17.5674 28.1636 17.6515C28.1791 17.7357 28.1946 17.8198 28.21 17.9105L28.1428 17.9223C27.4929 18.0375 25.7257 18.3506 23.0079 18.3506C20.3449 18.3506 18.4251 18.014 17.8058 17.8846C17.8164 17.8311 17.8234 17.7744 17.8305 17.7168C17.8439 17.6067 17.8578 17.4932 17.8987 17.3926C18.4191 16.1114 19.1535 14.9771 19.7147 14.1102ZM25.2993 22.9339C25.5161 22.8562 25.7328 22.7786 25.9186 22.675C27.4669 21.9241 28.241 20.6812 28.3339 18.9463C27.5288 19.1017 25.7019 19.3865 23.0698 19.3865C20.5307 19.3865 18.6419 19.1017 17.8058 18.9463C17.8058 20.6812 18.6109 21.8982 20.1591 22.675C20.2189 22.7 20.2819 22.7277 20.3471 22.7563C20.4845 22.8166 20.6314 22.8812 20.7784 22.9339C20.8446 22.9616 20.9127 22.9892 20.9822 23.0175C21.3034 23.1479 21.6552 23.2907 21.9861 23.5036C22.4196 23.7625 22.7602 24.0473 23.0389 24.3322C23.2866 24.0473 23.6582 23.7625 24.0917 23.5036C24.4942 23.2705 24.9277 23.0893 25.2993 22.9339L25.2993 22.9339Z" fill="currentColor"/>
        </g>
        <g id="food">
                <path fill-rule="evenodd" clip-rule="evenodd" d="M16.5024 30C19.9453 29.9959 23.2666 28.7259 25.8341 26.4318V30H29.3335V21.5907C29.3592 21.5324 29.3843 21.474 29.4088 21.4157L30.5 20.3249V6.08345C30.5 4.19521 28.9713 2.00014 27.0006 2.00014H25.8341V5.56837C21.1845 1.40605 14.3417 0.824607 9.05671 4.14278C3.7717 7.46095 1.32096 13.8773 3.0479 19.8746C4.77484 25.8719 10.2624 30.0016 16.5024 30ZM27.0006 3.16681C28.2569 3.16681 29.3336 4.77097 29.3336 6.08346V19.8419L28.1671 21.0086V28.8334H27.0006V3.16681ZM25.8341 7.19179C23.4077 4.62596 20.0335 3.17056 16.5024 3.16681C10.6489 3.16689 5.53752 7.12907 4.07717 12.7984C2.61681 18.4676 5.17775 24.4068 10.3025 27.2357C15.4272 30.0646 21.8165 29.066 25.8341 24.8084V7.19179Z" fill="currentColor"/>
                <path fill-rule="evenodd" clip-rule="evenodd" d="M9.53467 18.8525C9.53628 16.9704 11.0631 15.446 12.9448 15.4476C14.8258 15.4511 16.3489 16.977 16.3492 18.8583C16.3476 20.7404 14.8208 22.2648 12.939 22.2632C11.0572 22.2616 9.53306 20.7346 9.53467 18.8525ZM10.8722 19.7144C11.2198 20.5522 12.0379 21.0978 12.9448 21.0966C14.1795 21.0937 15.1798 20.0933 15.1826 18.8584C15.1838 17.9514 14.6383 17.1331 13.8007 16.7855C12.9631 16.4378 11.9986 16.6294 11.3574 17.2707C10.7161 17.9121 10.5246 18.8767 10.8722 19.7144Z" fill="currentColor"/>
                <path d="M18.8177 18.1917C18.7383 17.8812 18.4232 17.6929 18.1121 17.7701C17.8011 17.8474 17.6106 18.1612 17.6857 18.4729C17.9496 19.745 17.571 21.0655 16.6732 22.0044C16.5216 22.1508 16.4608 22.3677 16.5141 22.5717C16.5675 22.7756 16.7268 22.9349 16.9307 22.9883C17.1346 23.0417 17.3514 22.9809 17.4979 22.8292C18.6815 21.5991 19.1762 19.8609 18.8177 18.1917Z" fill="currentColor"/>
                <path fill-rule="evenodd" clip-rule="evenodd" d="M23.9134 7.42104L22.7469 6.25438C22.2127 5.71579 21.4409 5.48667 20.6994 5.64656C19.9579 5.80645 19.349 6.33331 19.0842 7.04421C16.4531 6.26991 13.6143 6.69911 11.3296 8.21662C9.04483 9.73413 7.54812 12.1846 7.24103 14.9104C6.06116 16.6101 5.70253 18.7482 6.26324 20.7399C6.82395 22.7316 8.24532 24.3685 10.1385 25.2027C11.2011 26.5221 12.8037 27.2895 14.4976 27.2899C15.042 27.2963 15.5839 27.2166 16.1033 27.0536C17.3084 26.6615 18.3718 25.9237 19.1612 24.932C22.0758 24.0722 24.3868 21.8427 25.3513 18.9606C26.3157 16.0784 25.812 12.9068 24.002 10.4654C24.7784 9.58554 24.7396 8.25426 23.9134 7.42104ZM21.1681 6.76711C21.451 6.76679 21.7223 6.87908 21.9222 7.07919L23.0887 8.24585C23.3152 8.46886 23.4296 8.78181 23.4003 9.09833C23.3711 9.41486 23.2012 9.70151 22.9377 9.87918L22.9032 9.90076C22.7022 10.0265 22.4649 10.0816 22.229 10.0571H22.2057C22.0961 10.0434 21.9891 10.0134 21.8884 9.96785C21.8825 9.96519 21.8769 9.96198 21.8712 9.95873C21.8669 9.95626 21.8626 9.95378 21.8581 9.95151C21.7556 9.90222 21.6619 9.83662 21.5805 9.75726L20.414 8.5906C20.2083 8.38483 20.0964 8.10333 20.1049 7.81244V7.80486C20.117 7.22679 20.59 6.76508 21.1681 6.76711ZM19.2475 12.0876C19.6643 12.5034 20.3389 12.5034 20.7557 12.0876C21.1714 11.6707 21.1714 10.996 20.7557 10.5791L19.5893 9.41246C19.1703 9.01103 18.5073 9.01815 18.097 9.42849C17.6868 9.83883 17.6797 10.5019 18.081 10.921L19.2475 12.0876ZM15.7172 25.9528C13.9481 26.4819 12.0376 25.8402 10.9464 24.3504L10.8542 24.239L10.7207 24.1807C9.12679 23.5165 7.91435 22.1729 7.41658 20.5192C6.9188 18.8656 7.18806 17.0758 8.15035 15.6419L8.19934 15.5742C8.21866 15.5465 8.23912 15.52 8.25958 15.4934L8.25964 15.4933C8.27189 15.4774 8.28415 15.4615 8.29616 15.4453C8.41515 15.2831 8.54267 15.1273 8.67818 14.9786L8.70443 14.9495L8.73067 14.9203C9.18744 14.4314 9.72509 14.0249 10.32 13.7187C10.5096 13.6224 10.7043 13.5365 10.9032 13.4614L10.9819 13.4328C11.1569 13.3698 11.3319 13.3162 11.5121 13.2695C11.5294 13.2652 11.5466 13.2607 11.5639 13.2561L11.5639 13.2561C11.5869 13.25 11.6099 13.2439 11.6328 13.2386C11.8031 13.1983 11.9758 13.1686 12.1496 13.1447C12.1687 13.142 12.1877 13.1388 12.2066 13.1356C12.2333 13.1312 12.26 13.1267 12.2872 13.1237C12.5054 13.0974 12.7248 13.084 12.9445 13.0834C14.9152 13.0813 16.7496 14.0889 17.8052 15.7533L17.8845 15.8776L18.0134 15.9493C18.508 16.2235 20.8993 17.7868 19.4581 21.6286L19.4301 21.7342C19.2391 22.5853 18.8682 23.3856 18.3424 24.0815L18.2257 24.2396C17.5713 25.0397 16.7005 25.6344 15.7172 25.9528ZM20.5656 21.9897C20.4685 22.441 20.3255 22.8812 20.1387 23.3034C22.3068 22.2277 23.8851 20.2442 24.4464 17.8895C25.0077 15.5349 24.494 13.0525 23.0443 11.1141C22.9518 11.1454 22.8573 11.1705 22.7615 11.1894C22.6257 11.2151 22.4879 11.2282 22.3497 11.2284H22.3346H22.3118H22.2232C22.2717 12.1499 21.7464 13.0057 20.9029 13.3795C20.0593 13.7533 19.0727 13.5675 18.4228 12.9125L17.2563 11.7459C16.3856 10.8733 16.3856 9.4603 17.2563 8.5877C17.5275 8.3201 17.8632 8.12719 18.2309 8.0277C17.6635 7.90022 17.0838 7.83509 16.5022 7.83345C13.0261 7.82136 9.92685 10.0207 8.79012 13.3063C8.80065 13.2985 8.81144 13.2914 8.82219 13.2843C8.83406 13.2765 8.84586 13.2687 8.85719 13.2602C8.97675 13.1727 9.09748 13.0887 9.22287 13.0088C9.24125 12.9969 9.26006 12.9857 9.27891 12.9744C9.29058 12.9675 9.30226 12.9605 9.31386 12.9533C9.74157 12.6889 10.1969 12.472 10.6716 12.3064C10.687 12.3013 10.7016 12.2957 10.716 12.2903C10.7311 12.2845 10.7459 12.2788 10.7614 12.2738C10.8845 12.2324 11.0105 12.1979 11.1364 12.1635L11.1365 12.1635L11.1365 12.1635C11.217 12.1419 11.2975 12.1203 11.3785 12.1011C11.4858 12.0766 11.5861 12.055 11.7028 12.034C11.8194 12.013 11.9361 11.9961 12.0527 11.9809C12.0772 11.9778 12.1015 11.9745 12.1257 11.9712C12.1865 11.9629 12.2471 11.9547 12.3088 11.9489C12.5193 11.929 12.731 11.9168 12.9445 11.9168C15.2622 11.9147 17.4266 13.0751 18.708 15.0067C19.3752 15.4232 21.7548 17.2117 20.8765 20.9391C20.8686 20.9729 20.862 21.0059 20.8555 21.0389C20.8462 21.0862 20.8368 21.1335 20.8234 21.183C20.8077 21.2414 20.787 21.303 20.7664 21.3643C20.7532 21.4034 20.7401 21.4424 20.7283 21.4805C20.7175 21.516 20.7068 21.5514 20.6962 21.5868C20.6565 21.7191 20.6167 21.8517 20.5656 21.9897Z" fill="currentColor"/>
        </g>
        <g id="appetizer">
                <path fill-rule="evenodd" clip-rule="evenodd" d="M25.006 16.8178C28.549 17.8442 30.5 19.4261 30.5 21.2724C30.5 22.7856 29.2207 24.0044 27.2365 24.9102C26.9858 25.9587 25.453 30 16.7117 30C7.85674 30 6.06981 25.8643 5.77667 24.9161C3.78499 24.0097 2.5 22.7889 2.5 21.2724C2.5 18.6909 6.13669 17.3122 8.40542 16.7033C9.30785 14.805 10.5055 13.3589 11.8396 12.6057C12.0895 11.9714 12.9308 10.2776 14.7967 10.2776C15.9792 10.2776 16.7976 10.7283 17.3654 11.3248C18.5483 11.3634 19.4342 11.8997 19.9936 12.9308C20.0662 13.0647 20.1296 13.2065 20.1886 13.3518C22.3353 13.5044 23.8717 14.9513 24.8666 16.8067C24.9123 16.8023 24.9589 16.8037 25.006 16.8178ZM14.9283 13.5846C14.2923 13.1679 13.511 13.1161 12.6758 13.4577C11.0921 14.1057 9.05793 16.3111 8.09894 20.5564C8.02767 20.87 7.76927 21.0512 7.5227 20.9619C7.27522 20.8719 7.13237 20.5445 7.20303 20.231C7.2048 20.2232 7.20676 20.2155 7.20873 20.2079C7.21059 20.2006 7.21246 20.1933 7.21416 20.1859C6.70989 20.481 6.64292 20.6894 6.64226 20.6922C6.8121 21.3836 10.433 22.7205 16.7493 22.7205C23.0631 22.7205 26.6837 21.3843 26.856 20.6676C26.8553 20.6676 26.8536 20.6648 26.8504 20.6595C26.8216 20.6123 26.6703 20.364 26.0213 20.0447C26.0255 20.0649 26.0302 20.0851 26.0349 20.1053L26.035 20.1054C26.0406 20.1296 26.0463 20.1538 26.0511 20.1779C26.1141 20.4941 25.9634 20.8157 25.7138 20.8958C25.6756 20.9081 25.6371 20.9138 25.5992 20.9138C25.3911 20.9138 25.2013 20.7357 25.1479 20.4679C24.2253 15.8489 21.7932 14.8007 20.5246 14.5743C20.5777 14.888 20.6129 15.2119 20.6319 15.5419C21.5107 15.6211 23.5226 16.2889 24.2608 20.6322C24.3148 20.9515 24.1549 21.2658 23.9035 21.3347C23.8704 21.3436 23.8374 21.3478 23.8046 21.3478C23.5899 21.3478 23.397 21.1585 23.3497 20.8815C22.7497 17.3485 21.2718 16.789 20.6404 16.7164C20.6288 17.0257 20.6083 17.3338 20.5796 17.6366C21.1288 17.9632 22.1063 18.8446 22.4486 21.092C22.4975 21.412 22.3322 21.7221 22.0795 21.7841C22.0498 21.7914 22.0201 21.7948 21.9907 21.7948C21.772 21.7948 21.577 21.5986 21.5339 21.3159C21.314 19.8727 20.7953 19.1877 20.4222 18.871C20.1803 20.4037 19.8295 21.588 19.7973 21.6948C19.7263 21.9299 19.5495 22.0745 19.3621 22.0745C19.3069 22.0745 19.2505 22.0618 19.1959 22.0357C18.9557 21.9191 18.8353 21.5775 18.9269 21.2728C19.3697 19.8008 20.2862 15.5532 19.2256 13.6C18.9839 13.1549 18.65 12.8499 18.2195 12.6752C18.2231 12.684 18.2269 12.6928 18.2308 12.7017C18.2358 12.7133 18.2408 12.7249 18.2454 12.7363C19.2204 15.1793 18.703 19.0687 17.0153 21.9845C16.924 22.1422 16.7826 22.2257 16.6395 22.2257C16.5436 22.2257 16.4472 22.1884 16.3641 22.1111C16.1567 21.9179 16.1121 21.5482 16.2643 21.2851C17.7316 18.7502 18.226 15.3043 17.4141 13.2703C16.9346 12.0686 16.0538 11.4594 14.7967 11.4594C14.1636 11.4594 13.6957 11.736 13.358 12.0717C14.3049 11.9518 15.1791 12.2532 15.8846 12.9587C18.4771 15.5513 14.8307 21.6706 14.6745 21.9299C14.5826 22.0818 14.4443 22.1615 14.3042 22.1615C14.2056 22.1615 14.1058 22.1218 14.0215 22.0399C13.8171 21.8414 13.7783 21.4705 13.9345 21.2116C13.9538 21.1796 15.0662 19.285 15.601 17.3558C14.8015 17.3904 13.5356 18.0452 12.7283 21.4532C12.6676 21.709 12.4826 21.8741 12.2825 21.8741C12.2379 21.8741 12.1927 21.866 12.1481 21.8491C11.9015 21.7552 11.762 21.4255 11.836 21.1131C12.9033 16.6075 14.8621 16.1179 15.8416 16.1816C15.9109 15.6136 15.8934 15.0784 15.7451 14.625C14.8403 14.6822 11.5497 15.2917 10.3845 21.0685C10.3305 21.3355 10.1413 21.5128 9.93352 21.5128C9.89531 21.5128 9.85649 21.5071 9.81767 21.4944C9.56836 21.4136 9.41824 21.0916 9.48193 20.7753C10.5598 15.4318 13.368 13.9781 14.9283 13.5846ZM16.7117 28.8182C10.5355 28.8182 8.08827 26.7554 7.16008 25.459C9.78588 26.348 13.1924 26.8103 16.5 26.8103C19.8638 26.8103 23.3311 26.3329 25.9742 25.414C25.2098 26.6837 22.9915 28.8182 16.7117 28.8182ZM3.43172 21.2724C3.43172 23.3329 8.79867 25.6285 16.5 25.6285C24.2014 25.6285 29.5683 23.3329 29.5683 21.2724C29.5683 20.4467 28.4814 19.1781 25.4849 18.1834C25.5426 18.3389 25.5966 18.4952 25.648 18.6526C25.6763 18.6563 25.7047 18.6625 25.733 18.6732C26.6146 19.0083 27.7868 19.5811 27.7868 20.6795C27.7868 23.2236 20.8488 23.9023 16.7493 23.9023C12.6498 23.9023 5.71182 23.2236 5.71182 20.6795C5.71182 19.6278 6.78218 19.0669 7.6088 18.7347C7.67881 18.5138 7.75205 18.2964 7.8291 18.0835C4.6083 19.0841 3.43172 20.3981 3.43172 21.2724Z" fill="currentColor"/>
                <path d="M16.1383 8.38941C15.9751 8.59271 16.0042 8.89269 16.2032 9.05926C16.2899 9.13178 16.3946 9.16711 16.4983 9.16711C16.6332 9.16711 16.7667 9.10761 16.8589 8.99279C17.3851 8.33673 18.0629 6.691 16.8622 5.15776C15.8802 3.90358 16.7309 2.91732 16.8337 2.80653C17.0117 2.61827 17.0075 2.31828 16.824 2.13529C16.6399 1.95198 16.3454 1.95523 16.1653 2.14334C15.6221 2.7117 14.9169 4.19737 16.1349 5.75246C17.1588 7.06024 16.1789 8.3375 16.1383 8.38941Z" fill="currentColor"/>
                <path d="M11.4634 9.13821C11.3003 9.34166 11.3294 9.64149 11.5286 9.80806C11.6151 9.88058 11.7197 9.9159 11.8234 9.9159C11.9584 9.9159 12.0921 9.8564 12.184 9.74158C12.538 9.30013 12.9941 8.19301 12.1874 7.16258C11.6976 6.53689 12.0776 6.05747 12.1604 5.96605C12.3369 5.77763 12.332 5.47889 12.1492 5.29635C11.9651 5.11289 11.6703 5.1163 11.4904 5.30441C11.1195 5.69256 10.6358 6.70486 11.4601 7.75728C11.9839 8.42652 11.5159 9.07018 11.4634 9.13821Z" fill="currentColor"/>
                <path d="M21.2979 9.13821C21.1347 9.3415 21.1639 9.64149 21.3628 9.80806C21.4496 9.88058 21.5542 9.9159 21.6579 9.9159C21.7926 9.9159 21.9263 9.8564 22.0185 9.74158C22.3728 9.30013 22.8289 8.19301 22.0219 7.16258C21.532 6.53689 21.9121 6.05747 21.9949 5.96605C22.1714 5.77763 22.1665 5.47889 21.9836 5.29635C21.7995 5.11289 21.5048 5.1163 21.3249 5.30441C20.954 5.69256 20.4702 6.70486 21.2946 7.75744C21.8187 8.42652 21.3507 9.07003 21.2979 9.13821Z" fill="currentColor"/>
        </g>

        <path id="bread" fill-rule="evenodd" clip-rule="evenodd" d="M29.5314 13.4419C30.1263 13.9429 30.483 14.7856 30.4816 15.6872C30.4858 16.5754 30.1444 17.4099 29.568 17.9209C29.7721 18.4726 29.8781 19.0739 29.8786 19.6826V23.3038C29.8743 23.9009 29.7683 24.4898 29.568 25.0309C30.3442 25.7041 30.6826 26.9355 30.4029 28.0695C30.1232 29.2035 29.2905 29.9762 28.3482 29.9762C27.052 30.0097 25.768 29.6545 24.6021 28.94C23.3346 28.1803 21.8631 28.1803 20.5956 28.94C19.4298 29.6551 18.1457 30.0104 16.8495 29.9762C16.6946 29.98 16.5857 29.9834 16.5116 29.9863C16.4373 29.9834 16.3275 29.98 16.1708 29.9762C14.8747 30.0077 13.5911 29.6526 12.4247 28.94C11.8057 28.537 11.1156 28.3389 10.4191 28.3642C9.72426 28.3399 9.03582 28.538 8.41817 28.94C7.25174 29.6526 5.96813 30.0077 4.67207 29.9762C3.72975 29.9762 2.89709 29.2035 2.61739 28.0695C2.33769 26.9355 2.67604 25.7041 3.45231 25.0309C3.25191 24.4898 3.14598 23.9009 3.14165 23.3038V19.6653C3.14217 19.0566 3.24819 18.4554 3.45231 17.9037C2.86307 17.4002 2.5102 16.5613 2.5102 15.6642C2.5102 14.767 2.86307 13.9282 3.45231 13.4247C3.23632 12.8609 3.1239 12.243 3.12338 11.617V10.2636C3.12183 9.66822 3.22153 9.07929 3.41576 8.53651C2.64714 7.85829 2.317 6.62967 2.60051 5.50248C2.88402 4.3753 3.71549 3.61065 4.6538 3.61422C5.35022 3.63955 6.04033 3.44145 6.65933 3.03852C7.82364 2.32401 9.10612 1.96881 10.4009 2.00225C11.6971 1.96811 12.9812 2.32333 14.147 3.03852C14.766 3.44145 15.4561 3.63955 16.1525 3.61422C16.8474 3.63857 17.5358 3.4405 18.1535 3.03852C18.2986 2.94987 18.4206 2.87222 18.5254 2.80557C18.8419 2.60423 19.0004 2.50337 19.159 2.5033C19.2742 2.50325 19.3895 2.55644 19.5655 2.66301C21.7619 1.67102 24.1914 1.79619 26.3289 3.03852C26.9466 3.4405 27.635 3.63857 28.3299 3.61422C29.2682 3.61065 30.0997 4.3753 30.3832 5.50248C30.6667 6.62967 30.3366 7.85829 29.568 8.53651C29.7622 9.07929 29.8619 9.66822 29.8603 10.2636V11.6342C29.8598 12.2603 29.7474 12.8781 29.5314 13.4419ZM16.5099 30C16.6271 30 16.7448 29.9954 16.5116 29.9863C16.2765 29.9955 16.3929 30 16.5099 30ZM28.3299 17.2473C28.43 17.2466 28.5296 17.2311 28.6269 17.2013C28.781 17.1502 28.9264 17.0644 29.0746 16.9595C29.4005 16.6629 29.5913 16.1848 29.5858 15.6782C29.5804 15.1716 29.3793 14.7002 29.0471 14.4149C28.9095 14.2959 28.7541 14.2136 28.5903 14.1731C28.5048 14.1496 28.4174 14.138 28.3299 14.1385H27.9325C27.2453 14.0972 26.5728 13.8736 25.9589 13.4822C25.5902 13.2552 25.2082 13.0685 24.8172 12.9232C24.9463 12.7824 25.0157 12.5702 24.9996 12.3517V11.7556C25.17 11.8663 25.3247 12.0136 25.4566 12.1393C25.7234 12.3935 25.8972 12.559 25.9198 12.1536C26.0577 12.2255 26.1941 12.3018 26.3289 12.3826C26.9455 12.7885 27.6347 12.9868 28.3299 12.9583C28.4449 12.9619 28.5595 12.9773 28.6725 13.0044C28.8497 12.5757 28.9436 12.1002 28.9466 11.6169V10.2636C28.9471 9.83256 28.8739 9.40646 28.7319 9.01431C28.6028 9.04942 28.4711 9.06679 28.339 9.06612C27.5224 9.08228 26.7083 8.94846 25.9223 8.66888V12.054C25.9224 12.0905 25.9215 12.1236 25.9198 12.1536C25.6193 11.997 25.3121 11.8617 24.9996 11.7485V7.87444C25 7.68496 25.0744 7.50788 25.1985 7.40092C25.3227 7.29396 25.4806 7.27082 25.6209 7.33904C26.3925 7.70499 27.2086 7.89977 28.033 7.91474H28.33C28.4428 7.91144 28.5548 7.89016 28.6634 7.85142C28.8165 7.79771 28.9595 7.70568 29.0837 7.58083C29.5026 7.17477 29.6696 6.47759 29.4991 5.84725C29.3286 5.21692 28.8584 4.79351 28.33 4.79442C27.5079 4.82312 26.6931 4.59362 25.9589 4.1266C23.8177 2.87562 19.5764 3.47899 18.5281 4.1266C17.7921 4.59273 16.976 4.82215 16.1525 4.79442C15.3291 4.82215 14.513 4.59273 13.777 4.1266C12.7274 3.47809 11.5696 3.15629 10.4009 3.1882C9.2322 3.15629 8.07447 3.47809 7.02485 4.1266C6.29071 4.59362 5.4759 4.82312 4.65384 4.79442C3.97009 4.79442 3.4158 5.49293 3.4158 6.35458C3.41606 6.82914 3.5896 7.27715 3.88635 7.56932C4.01061 7.69417 4.15355 7.78619 4.30664 7.8399C4.41524 7.87865 4.5273 7.89992 4.64014 7.90323H4.93708C5.84609 7.89233 6.74463 7.65765 7.5822 7.21238L8.0162 6.9821C8.24462 6.85544 8.45476 6.7403 8.67862 6.63668C9.22816 6.40077 9.80693 6.29156 10.3872 6.31428C10.969 6.29125 11.5493 6.40046 12.1004 6.63668C12.3059 6.7403 12.5344 6.85544 12.7628 6.9821L13.2196 7.21238C14.1392 7.70367 15.1311 7.94308 16.1297 7.91474C17.1388 7.946 18.1417 7.70659 19.0718 7.21238L19.2271 7.21814C19.3477 7.28254 19.4257 7.33958 19.4719 7.38929C19.4376 7.39456 19.4039 7.40473 19.3713 7.41964C18.6618 7.72707 19.782 7.72277 19.4719 7.38929C19.4885 7.38674 19.5053 7.38533 19.522 7.38509C19.6173 7.38587 19.7099 7.42411 19.787 7.49448C19.9068 7.60195 19.9782 7.7755 19.9789 7.9608V13.4247C20.0044 13.7711 20.235 14.2836 20.5111 14.2836C20.7872 14.2836 21.0178 14.0186 21.0433 13.6722V11.5475C21.0132 10.872 21.282 10.231 21.7418 9.88186C21.9922 9.69171 22.1828 9.74401 22.43 9.81184C22.6367 9.86855 22.8829 9.93611 23.2367 9.88186C23.6894 9.81245 23.8619 10.6395 23.9211 11.4755C23.8759 11.4604 23.832 11.4571 23.7896 11.4634C23.5334 11.4252 23.2762 11.3994 23.0185 11.386C22.9967 11.1904 22.9073 11.0136 22.7706 10.9069C22.5981 10.7723 22.3802 10.7723 22.2078 10.9069C22.0735 11.0116 21.9849 11.1839 21.9611 11.3752H21.9569V11.4171C21.9539 11.4581 21.9539 11.4998 21.9569 11.5418V11.4171C21.958 11.4031 21.9594 11.3891 21.9611 11.3752H22.5874C22.7312 11.3749 22.8749 11.3785 23.0185 11.386C23.0242 11.4369 23.0253 11.4892 23.0214 11.5418V12.0772C23.0221 12.4098 23.0946 12.285 23.2234 12.0634C23.3572 11.8333 23.5517 11.4987 23.7896 11.4634C23.8336 11.47 23.8777 11.4769 23.9217 11.4843C23.9489 11.8737 23.9516 12.2644 23.9468 12.5666C23.9413 12.537 23.9374 12.5069 23.9351 12.4763V12.3517C23.932 12.3936 23.9321 12.4353 23.9351 12.4763V12.669C23.4898 12.5768 23.0371 12.5365 22.5828 12.5496H21.9524V13.6664C21.9536 14.3448 21.6514 14.9661 21.1712 15.2727C21.0178 15.3748 20.8503 15.4393 20.6778 15.4627C20.5671 15.4972 20.4518 15.5011 20.3397 15.4742C20.1672 15.4508 19.9998 15.3863 19.8464 15.2842C19.424 15.013 19.3926 14.8964 19.2801 14.4774C19.2644 14.4191 19.2471 14.3549 19.227 14.2836C19.1788 14.0936 19.1952 13.8799 19.2094 13.695V13.695C19.241 13.2849 19.2616 13.0161 18.5418 13.4592C17.8065 13.9281 16.9899 14.1577 16.1662 14.127C15.3425 14.1577 14.5259 13.9281 13.7906 13.4592C12.7406 12.8127 11.5829 12.4929 10.4146 12.5266C9.24632 12.494 8.08881 12.8137 7.03851 13.4592C6.42488 13.8514 5.75223 14.075 5.06495 14.1155H4.6675C4.57996 14.115 4.49264 14.1266 4.4071 14.15C4.24381 14.1925 4.08864 14.2746 3.95026 14.3918C3.62046 14.6797 3.42181 15.1512 3.41727 15.6567C3.41273 16.1623 3.60287 16.6392 3.92742 16.9365C4.05726 17.0529 4.20275 17.1387 4.35685 17.1898C4.46526 17.2152 4.5758 17.2229 4.68578 17.2128H5.05125C5.66956 17.1962 6.28366 17.0801 6.87862 16.8674C7.0198 16.8153 7.17223 16.8521 7.28815 16.9662C7.40407 17.0804 7.46929 17.2579 7.46337 17.4431V21.7148C7.48887 22.0612 7.71952 22.3262 7.99559 22.3262C8.27167 22.3262 8.50232 22.0612 8.52781 21.7148V19.0148C8.57095 18.0482 9.20549 17.2922 9.97372 17.2922C10.7419 17.2922 11.3765 18.0482 11.4196 19.0148V19.5502C11.4451 19.8966 11.6758 20.1615 11.9518 20.1615C12.2279 20.1615 12.4586 19.8966 12.4841 19.5502V18.9745C12.5272 18.0079 13.1617 17.2519 13.93 17.2519C14.6982 17.2519 15.3327 18.0079 15.3759 18.9745V26.2456C15.3711 26.2915 15.3711 26.3379 15.3759 26.3838C15.4225 26.6935 15.6374 26.9177 15.8875 26.9177C16.1377 26.9177 16.3525 26.6935 16.3992 26.3838C16.4014 26.3397 16.4014 26.2955 16.3992 26.2514V17.7655C16.399 17.6758 16.3534 17.5967 16.3143 17.529C16.2213 17.368 16.1653 17.2709 16.8449 17.2473C17.8088 17.2782 18.7676 17.0628 19.6636 16.6141C19.8217 16.5353 19.971 16.4528 20.1161 16.3726L20.221 16.3147L20.7235 16.0384C20.8697 15.9693 21.022 15.9059 21.1803 15.8484C22.1017 15.5798 23.0595 15.5798 23.9808 15.8484C24.1452 15.9059 24.264 15.952 24.4376 16.0384C24.6112 16.1247 24.7802 16.2168 24.9538 16.3147C25.1274 16.4126 25.3148 16.5162 25.5158 16.6141C26.2957 17.0066 27.1249 17.221 27.9644 17.2473H28.3299ZM23.9447 12.671C23.9421 12.7857 23.9385 12.8837 23.9351 12.9589V12.669L23.9447 12.671ZM23.9755 12.6775C24.0179 12.8031 24.0904 12.912 24.186 12.9866C24.3584 13.1211 24.5763 13.1211 24.7487 12.9866C24.7731 12.9676 24.796 12.9463 24.8172 12.9232C24.5407 12.8204 24.2596 12.7384 23.9755 12.6775ZM23.9755 12.6775L23.9447 12.671C23.9455 12.6376 23.9462 12.6027 23.9468 12.5666C23.9538 12.6047 23.9634 12.6418 23.9755 12.6775ZM23.9217 11.4843C23.9215 11.4813 23.9213 11.4784 23.9211 11.4755C23.9333 11.4796 23.9455 11.4845 23.9579 11.4904C23.9458 11.4883 23.9338 11.4863 23.9217 11.4843ZM24.9741 11.7394L24.9996 11.7485V11.7556C24.9911 11.7501 24.9826 11.7447 24.9741 11.7394ZM24.5016 11.5881C24.6603 11.633 24.8178 11.6834 24.9741 11.7394C24.8265 11.6475 24.6675 11.5848 24.5016 11.5881ZM28.9466 23.3211V19.6826C28.9415 19.2288 28.8556 18.7822 28.6953 18.3758C28.575 18.4059 28.4526 18.4214 28.3299 18.4218C27.0341 18.4564 25.7502 18.1033 24.5838 17.3913C23.3163 16.6317 22.7705 16.3147 20.5773 17.3913C19.2035 18.0656 18.7521 18.103 18.3046 18.1401C18.0376 18.1622 17.772 18.1842 17.3128 18.3412V24.4322C17.6008 24.3227 17.8818 24.1861 18.1534 24.0235C18.3013 23.9334 18.4252 23.8547 18.5312 23.7873L18.5313 23.7873C19.0723 23.4436 19.1484 23.3953 19.5647 23.6448C21.7619 22.6578 24.1898 22.7821 26.3289 24.0177C26.9454 24.4236 27.6347 24.6219 28.3299 24.5934C28.454 24.597 28.5776 24.6124 28.6999 24.6395C28.8592 24.2287 28.9435 23.7782 28.9466 23.3211ZM28.3299 28.8708C28.6591 28.8709 28.9747 28.7057 29.207 28.4119C29.4393 28.118 29.5692 27.7197 29.5634 27.2934C29.5595 26.579 29.1723 25.9584 28.6223 25.7851C28.5253 25.753 28.4256 25.7356 28.3254 25.7333H27.9873C27.2814 25.7023 26.5893 25.4783 25.9589 25.0769C23.8163 23.8338 19.5608 24.4268 18.5053 25.0769C18.1181 25.3144 17.7103 25.4941 17.2901 25.6124V26.2687C17.2923 26.3127 17.2923 26.357 17.2901 26.4011C17.2789 26.5987 17.2435 26.7929 17.185 26.9768C17.1135 27.1933 17.0078 27.3891 16.8743 27.5525C16.6078 27.903 16.2408 28.1041 15.8556 28.1109C15.4718 28.1092 15.1041 27.9168 14.8323 27.5755C14.7017 27.4103 14.5978 27.2148 14.5262 26.9998C14.4634 26.8177 14.4278 26.6225 14.4211 26.4241C14.4189 26.3781 14.4189 26.3319 14.4211 26.2859V25.4512C14.2064 25.3533 14.0008 25.2439 13.777 25.1172C12.7269 24.4707 11.5692 24.1509 10.4009 24.1846C9.2341 24.1518 8.07804 24.4716 7.0294 25.1172C6.39432 25.5193 5.69764 25.7432 4.98732 25.7736H4.65383C4.55356 25.7759 4.45388 25.7933 4.35688 25.8254C4.20168 25.8718 4.05457 25.9537 3.92288 26.0672C3.48947 26.4653 3.30875 27.1698 3.47522 27.8122C3.6417 28.4547 4.11751 28.8891 4.65383 28.8881C5.82254 28.92 6.98027 28.5982 8.02989 27.9497C8.28887 27.799 8.55424 27.6664 8.82479 27.5525C9.33543 27.3574 9.86746 27.2661 10.4009 27.2819C10.9359 27.2655 11.4695 27.3568 11.9816 27.5525C12.2472 27.6613 12.508 27.7882 12.7628 27.9324C13.8165 28.5837 14.9792 28.9055 16.1525 28.8708C16.5121 28.8807 16.6042 28.889 16.5933 28.895C16.3707 28.902 16.3653 28.905 16.4183 28.9047C16.4712 28.9044 16.5826 28.9008 16.5933 28.895C16.6549 28.893 16.7331 28.8907 16.8312 28.8881C17.9999 28.92 19.1577 28.5982 20.2073 27.9497C20.4666 27.8 20.7319 27.6674 21.0022 27.5525C22.035 27.1916 23.1262 27.1916 24.159 27.5525C24.4295 27.6598 24.6949 27.7866 24.9539 27.9324C26.0041 28.5786 27.1614 28.9003 28.3299 28.8708ZM4.03706 23.3211V19.6826C4.03805 19.2171 4.12402 18.7581 4.28832 18.3412C4.40869 18.3713 4.53108 18.3868 4.6538 18.3873C5.27635 18.3942 5.89784 18.3209 6.50857 18.1685V21.6745C6.50514 22.5781 7.02845 23.3479 7.73748 23.4823C7.36624 23.6384 7.00179 23.819 6.64563 24.0234C6.02725 24.4285 5.33669 24.6268 4.64009 24.5991C4.516 24.6028 4.39231 24.6182 4.27005 24.6452C4.11271 24.2322 4.03299 23.7791 4.03706 23.3211ZM9.40042 21.686C9.39687 22.2702 9.17297 22.8174 8.79739 23.1598C9.32591 23.0305 9.86256 22.9611 10.4009 22.9526C11.6966 22.9193 12.9802 23.2724 14.147 23.9831L14.4211 24.1328V18.9514C14.3956 18.605 14.165 18.34 13.8889 18.34C13.6128 18.34 13.3822 18.605 13.3567 18.9514V19.5271C13.3135 20.4937 12.679 21.2496 11.9108 21.2496C11.1425 21.2496 10.508 20.4937 10.4649 19.5271V18.9859C10.4394 18.6395 10.2087 18.3746 9.93265 18.3746C9.65657 18.3746 9.42592 18.6395 9.40042 18.9859V21.686ZM4.26087 8.99702C4.11381 9.39357 4.03741 9.82587 4.03702 10.2636V11.6342C4.03935 12.1194 4.13331 12.597 4.31112 13.0274C4.42416 13.0004 4.53874 12.985 4.65375 12.9813C5.35035 13.009 6.04091 12.8107 6.65929 12.4056C7.8241 11.6935 9.10648 11.3403 10.4008 11.3751C11.6967 11.3396 12.9807 11.6928 14.1469 12.4056C14.7653 12.8107 15.4559 13.009 16.1525 12.9813C16.8477 13.0098 17.5369 12.8115 18.1534 12.4056C18.2986 12.3172 18.4206 12.2398 18.5254 12.1734C18.8089 11.9935 18.9656 11.8942 19.1091 11.8754C19.1873 11.1148 19.2919 9.46335 18.8585 8.54489C17.9877 8.90107 17.0731 9.07249 16.1525 9.04884C14.8568 9.08213 13.5732 8.72903 12.4064 8.01832C11.7884 7.61175 11.0975 7.41343 10.4008 7.44262C9.70562 7.41416 9.01637 7.61247 8.39986 8.01832C7.23304 8.72903 5.94945 9.08213 4.65375 9.04884C4.52169 9.04951 4.38996 9.03214 4.26087 8.99702Z" fill="currentColor"/>

        <g id="snack">
                <path fill-rule="evenodd" clip-rule="evenodd" d="M2.5 16C2.5 8.28037 8.78037 2 16.5 2C24.2196 2 30.5 8.28037 30.5 16C30.5 23.7196 24.2196 30 16.5 30C8.78037 30 2.5 23.7196 2.5 16ZM3.67429 16C3.67429 23.0722 9.4278 28.8257 16.5 28.8257C23.5722 28.8257 29.3257 23.0718 29.3257 16C29.3257 8.9278 23.5722 3.17429 16.5 3.17429C9.4278 3.17429 3.67429 8.9278 3.67429 16Z" fill="currentColor"/>
                <path fill-rule="evenodd" clip-rule="evenodd" d="M16.3074 11.6229C18.6294 11.6229 20.5181 13.5119 20.5181 15.8336C20.5181 18.1553 18.6291 20.0443 16.3074 20.0443C13.9857 20.0443 12.0967 18.1556 12.0967 15.8336C12.0967 13.5116 13.9854 11.6229 16.3074 11.6229ZM13.1367 15.8338C13.1367 17.5817 14.5592 19.0045 16.3075 19.0045C18.0561 19.0045 19.4782 17.582 19.4782 15.8338C19.4782 14.0855 18.0557 12.6631 16.3075 12.6631C14.5592 12.6631 13.1367 14.0858 13.1367 15.8338Z" fill="currentColor"/>
                <path d="M16.815 8.70246L18.0565 9.02556C18.0859 9.03319 18.115 9.03665 18.1442 9.03665C18.2981 9.03665 18.4388 8.93335 18.4794 8.77734C18.5276 8.59187 18.4163 8.40258 18.2312 8.3544L16.9897 8.03129C16.8046 7.98276 16.615 8.0937 16.5668 8.27951C16.5189 8.46499 16.6299 8.65427 16.815 8.70246Z" fill="currentColor"/>
                <path d="M12.3696 9.7159C12.485 9.56337 12.4552 9.346 12.3024 9.23021C12.1495 9.11442 11.9321 9.14458 11.8167 9.29746L11.2304 10.0719C11.115 10.2245 11.1448 10.4418 11.2977 10.5576C11.3604 10.6051 11.4339 10.628 11.5067 10.628C11.6118 10.628 11.7154 10.5805 11.7834 10.4907L12.3696 9.7159Z" fill="currentColor"/>
                <path d="M14.9226 10.5995C14.9874 10.6533 15.0658 10.6793 15.1435 10.6793C15.2433 10.6793 15.3421 10.6363 15.4107 10.5538C15.5331 10.4064 15.5123 10.1877 15.365 10.0657L14.8072 9.60353C14.6595 9.48081 14.4414 9.50196 14.3191 9.64929C14.1967 9.79663 14.2175 10.0154 14.3648 10.1374L14.9226 10.5995Z" fill="currentColor"/>
                <path d="M20.6152 9.32962C20.6412 9.32962 20.6676 9.32685 20.6943 9.32061L21.675 9.09215C21.8615 9.04881 21.9776 8.8623 21.934 8.67579C21.8906 8.48928 21.7041 8.37383 21.518 8.41648L20.5372 8.64494C20.3507 8.68827 20.2346 8.87478 20.2782 9.06129C20.3153 9.22146 20.4578 9.32962 20.6152 9.32962Z" fill="currentColor"/>
                <path d="M23.8566 13.35L23.0783 12.9731C22.907 12.8896 22.6987 12.9617 22.6151 13.134C22.5319 13.3063 22.604 13.5136 22.7763 13.5972L23.5546 13.974C23.6032 13.9976 23.6545 14.0087 23.7054 14.0087C23.8341 14.0087 23.9582 13.9366 24.0178 13.8131C24.101 13.6408 24.0289 13.4335 23.8566 13.35Z" fill="currentColor"/>
                <path d="M18.3247 11.5313C18.3733 11.5545 18.4242 11.5656 18.4745 11.5656C18.6038 11.5656 18.7276 11.4931 18.7872 11.369L19.2126 10.4826C19.2954 10.3099 19.2226 10.103 19.05 10.0201C18.8763 9.93621 18.67 10.0101 18.5875 10.1827L18.1621 11.0692C18.0793 11.2414 18.1521 11.4488 18.3247 11.5313Z" fill="currentColor"/>
                <path d="M19.6598 21.4397C19.5204 21.3086 19.301 21.3159 19.1699 21.4556C19.0389 21.595 19.0462 21.8144 19.1859 21.9455L19.821 22.5411C19.8875 22.6038 19.9728 22.635 20.0581 22.635C20.1507 22.635 20.2425 22.5983 20.3108 22.5255C20.4419 22.3861 20.4346 22.1666 20.2949 22.0356L19.6598 21.4397Z" fill="currentColor"/>
                <path d="M23.2354 16.1556C23.1723 15.9747 22.975 15.8783 22.7944 15.9414L21.9204 16.244C21.7398 16.3068 21.6434 16.504 21.7062 16.685C21.7561 16.8285 21.8903 16.9183 22.0338 16.9183C22.0712 16.9183 22.1097 16.9121 22.1472 16.8992L23.0211 16.5966C23.2017 16.5338 23.2981 16.3366 23.2354 16.1556Z" fill="currentColor"/>
                <path d="M14.8534 22.9259L14.054 23.2556C13.8768 23.3287 13.7926 23.5315 13.8657 23.7087C13.9208 23.8425 14.0502 23.9229 14.1864 23.9229C14.2304 23.9229 14.2752 23.9146 14.3185 23.8969L15.1179 23.5672C15.2951 23.4941 15.3793 23.2913 15.3062 23.1141C15.233 22.937 15.0299 22.8534 14.8534 22.9259Z" fill="currentColor"/>
                <path d="M20.8413 19.0143L20.0686 19.4199C19.899 19.509 19.8335 19.7184 19.9226 19.8882C19.9847 20.0065 20.105 20.0737 20.2301 20.0737C20.2842 20.0737 20.3393 20.0609 20.391 20.0342L21.1637 19.6286C21.3332 19.5395 21.3988 19.3301 21.3097 19.1602C21.2206 18.9904 21.0115 18.9259 20.8413 19.0143Z" fill="currentColor"/>
                <path d="M23.4018 20.8694L22.7469 21.3388C22.5913 21.4501 22.5552 21.6668 22.6672 21.8224C22.7348 21.9171 22.8412 21.9673 22.9491 21.9673C23.0187 21.9673 23.0895 21.9462 23.1505 21.9022L23.8053 21.4328C23.961 21.3215 23.9971 21.1048 23.8851 20.9492C23.7741 20.7932 23.5575 20.7574 23.4018 20.8694Z" fill="currentColor"/>
                <path d="M21.6744 11.2062C21.4993 11.1268 21.2944 11.2048 21.2157 11.3792L20.6545 12.6206C20.5754 12.795 20.6531 13.0006 20.8275 13.0793C20.8739 13.1004 20.9221 13.1101 20.97 13.1101C21.102 13.1101 21.2282 13.0342 21.2861 12.9063L21.8474 11.6649C21.9264 11.4905 21.8488 11.2849 21.6744 11.2062Z" fill="currentColor"/>
                <path d="M9.70747 13.5725C9.82603 13.5725 9.94182 13.5115 10.0063 13.4019C10.1037 13.2369 10.0489 13.0244 9.88393 12.927L8.82934 12.3043C8.66467 12.2073 8.45181 12.2617 8.35439 12.4267C8.25698 12.5917 8.31175 12.8043 8.47677 12.9017L9.53136 13.5243C9.58717 13.5569 9.64784 13.5725 9.70747 13.5725Z" fill="currentColor"/>
                <path d="M12.8408 12.1575C12.7379 11.9959 12.5233 11.9488 12.3621 12.0514L11.6829 12.4847C11.5214 12.5877 11.4739 12.8019 11.5769 12.9635C11.6431 13.0671 11.7551 13.1237 11.8695 13.1237C11.9332 13.1237 11.9977 13.106 12.0556 13.0692L12.7348 12.6359C12.8963 12.5333 12.9435 12.319 12.8408 12.1575Z" fill="currentColor"/>
                <path d="M16.4653 21.5204L15.5785 21.2105C15.3978 21.1474 15.1999 21.2427 15.1371 21.4234C15.074 21.604 15.1694 21.8019 15.35 21.865L16.2368 22.175C16.2746 22.1881 16.3131 22.1944 16.3512 22.1944C16.4947 22.1944 16.6285 22.1049 16.6785 21.9621C16.7416 21.7815 16.6459 21.5835 16.4653 21.5204Z" fill="currentColor"/>
                <path d="M10.1095 19.5288L9.2816 19.9587C9.11173 20.0471 9.04552 20.2561 9.13392 20.4263C9.19563 20.5452 9.31662 20.6132 9.44177 20.6132C9.4955 20.6132 9.54993 20.6007 9.60124 20.5744L10.4291 20.1445C10.599 20.0561 10.6652 19.847 10.5768 19.6768C10.4887 19.5066 10.2793 19.4407 10.1095 19.5288Z" fill="currentColor"/>
                <path d="M10.4293 15.4917C10.2591 15.4029 10.0497 15.4692 9.96163 15.639L9.31508 16.8808C9.22668 17.0507 9.29289 17.2601 9.46242 17.3485C9.51338 17.3752 9.5685 17.3877 9.62224 17.3877C9.74739 17.3877 9.86838 17.3197 9.93008 17.2012L10.5766 15.9594C10.6654 15.7898 10.5992 15.5804 10.4293 15.4917Z" fill="currentColor"/>
                <path d="M12.5039 19.9161H12.5036C12.3118 19.9165 12.1569 20.0718 12.1572 20.2635L12.1586 21.1559C12.159 21.3472 12.3139 21.5018 12.5053 21.5018H12.5056C12.6973 21.5015 12.8523 21.3462 12.852 21.1545L12.8506 20.2621C12.8502 20.0708 12.6953 19.9161 12.5039 19.9161Z" fill="currentColor"/>
                <path d="M23.5814 18.3824L22.8669 18.4636C22.6766 18.485 22.5403 18.657 22.5618 18.847C22.5819 19.0238 22.7317 19.1545 22.9057 19.1545C22.9185 19.1545 22.9317 19.1538 22.9452 19.1521L23.6597 19.0709C23.85 19.0494 23.9863 18.8775 23.9648 18.6875C23.9433 18.4975 23.7762 18.3575 23.5814 18.3824Z" fill="currentColor"/>
                <path fill-rule="evenodd" clip-rule="evenodd" d="M27.2674 14.7663L27.2865 15.0117C27.2872 15.0252 27.2879 15.0388 27.2868 15.053V15.1757C27.2868 15.1878 27.2865 15.2003 27.2855 15.2128L27.2761 15.3449C27.2751 15.3591 27.2733 15.373 27.2712 15.3872L27.2342 15.6312C27.2324 15.6444 27.2296 15.6576 27.2265 15.6704L27.1981 15.7931C27.1959 15.8043 27.1928 15.8151 27.1896 15.8263L27.1887 15.8292L27.1135 16.0732C27.1083 16.0899 27.1028 16.1062 27.0958 16.1221L26.9579 16.4632C26.9488 16.4854 26.9388 16.5062 26.9273 16.527L26.677 16.9597C26.6712 16.9697 26.6649 16.9798 26.6583 16.9892L25.6346 18.4615L25.5275 18.9018L25.5212 19.0841L25.5399 19.5747L25.5874 20.3588C25.5878 20.3713 25.5878 20.3835 25.5874 20.3959L25.5684 20.916C25.568 20.9281 25.567 20.9402 25.5656 20.952L25.5372 21.2165C25.5358 21.2297 25.5337 21.2425 25.5313 21.2554L25.4228 21.7788L25.3524 22.042C25.3486 22.0558 25.3448 22.0693 25.3396 22.0829L25.2546 22.319C25.2494 22.3328 25.2442 22.3463 25.238 22.3599L25.134 22.5862L25.134 22.5863C25.1277 22.5991 25.1215 22.6119 25.1142 22.6244L24.9215 22.9617C24.9145 22.9745 24.9069 22.9863 24.8989 22.9977L24.6615 23.3174L24.4718 23.5292C24.4597 23.5427 24.4472 23.5552 24.4337 23.5673L24.2444 23.7379C24.2312 23.7504 24.217 23.7615 24.2025 23.7722L23.7743 24.0735C23.7598 24.0832 23.7449 24.0929 23.7293 24.1012L23.5025 24.2239C23.496 24.2274 23.4894 24.2306 23.4828 24.2338C23.4788 24.2357 23.4749 24.2376 23.471 24.2395L23.2446 24.3432C23.2293 24.3501 23.2141 24.356 23.1985 24.3616L22.6903 24.5276C22.6722 24.5332 22.6542 24.5377 22.6358 24.5412L22.1127 24.6302C22.1002 24.632 22.0881 24.6334 22.0756 24.6344L20.3606 24.7623L19.7557 24.9145L19.5671 24.9932L19.1868 25.2054L17.8937 26.0319L17.6434 26.1574C17.6305 26.1639 17.6177 26.1695 17.6045 26.175L17.1154 26.3609C17.1018 26.3661 17.0883 26.3699 17.0745 26.3737L16.829 26.4396C16.8169 26.4427 16.8047 26.4454 16.7926 26.4479L16.5472 26.4954C16.5333 26.4981 16.5194 26.5002 16.5056 26.502L16.2508 26.53C16.2386 26.5314 16.2261 26.5321 16.214 26.5328L15.6936 26.5425C15.6742 26.5425 15.6555 26.5415 15.6364 26.5394L15.114 26.4704L14.8259 26.4077L14.8228 26.4069C14.8085 26.4033 14.794 26.3997 14.7802 26.3952L14.5441 26.3196L14.544 26.3196C14.5322 26.3158 14.5205 26.312 14.5091 26.3071L14.273 26.2128L14.273 26.2128C14.2622 26.2083 14.2515 26.2038 14.2411 26.1986L13.7575 25.9469L13.5259 25.7999C13.5137 25.7923 13.502 25.784 13.4902 25.7753L13.2919 25.6242C13.277 25.6131 13.2628 25.6009 13.2492 25.5881L12.8904 25.2484C12.8804 25.239 12.871 25.229 12.8617 25.2189L12.8616 25.2189L12.5216 24.8303L11.4268 23.4536L11.1297 23.1721L10.9778 23.0643L10.6055 22.8705L10.1832 22.7069L8.72927 22.2444C8.71783 22.2403 8.70673 22.2361 8.69564 22.2312L8.22589 22.0201C8.21237 22.0139 8.19955 22.0073 8.18672 22L7.9697 21.8773C7.95895 21.8711 7.94786 21.8645 7.93746 21.8575L7.72911 21.7216C7.70484 21.706 7.68196 21.689 7.66046 21.6696L7.50307 21.5421C7.47465 21.5213 7.44795 21.497 7.42403 21.4706L7.28259 21.3299C7.26595 21.3146 7.25 21.2987 7.23544 21.2814L6.8957 20.8733C6.8794 20.8529 6.86415 20.8307 6.85098 20.8081L6.52337 20.2115C6.51817 20.2015 6.51331 20.1907 6.50881 20.18L6.40862 19.93C6.40446 19.9186 6.40064 19.9075 6.39718 19.8964L6.35939 19.7737L6.35823 19.7696C6.35516 19.7589 6.35215 19.7484 6.34968 19.7376L6.29283 19.4918C6.29005 19.4793 6.28763 19.4665 6.28555 19.4537L6.24811 19.2093C6.24603 19.1961 6.24464 19.1829 6.2436 19.1698L6.22453 18.924C6.22349 18.9108 6.22314 18.8973 6.22314 18.8841V18.6296C6.22314 18.6165 6.22349 18.6029 6.22453 18.5898L6.27341 18.0722C6.27515 18.0583 6.27723 18.0448 6.27965 18.0313L6.3736 17.5341L6.83052 15.6045L6.85514 15.1847L6.77991 14.5361L6.49078 13.314L6.4159 12.7698C6.41416 12.7569 6.41312 12.7438 6.41278 12.7306L6.40307 12.3329C6.40307 12.3194 6.40342 12.3063 6.40446 12.2927L6.42352 12.0473C6.4256 12.0216 6.42942 11.996 6.43531 11.9707L6.47518 11.7627C6.47864 11.7412 6.48315 11.72 6.48905 11.6992L6.66412 11.1643C6.67001 11.1487 6.67694 11.1334 6.68422 11.1189L6.86727 10.7618C6.87524 10.7469 6.88391 10.732 6.89327 10.7178L7.20112 10.2713C7.21187 10.2567 7.22296 10.2428 7.23509 10.2293L7.4899 9.94608C7.50238 9.93256 7.51521 9.91973 7.52873 9.90725L7.84455 9.64205C7.85495 9.63373 7.8657 9.62575 7.87644 9.61847L8.324 9.33038L8.80519 9.08286L9.90554 8.53823L10.265 8.29417L10.4332 8.16555L10.9456 7.67951L11.451 7.13696C11.5016 7.08184 11.562 7.04163 11.6268 7.01389L11.8143 6.77538C11.8216 6.76637 11.8289 6.75735 11.8369 6.74869L12.1815 6.36596C12.1905 6.35556 12.2002 6.34585 12.2102 6.33614L12.3922 6.1635C12.403 6.15344 12.4141 6.14374 12.4255 6.13472L12.6165 5.98184C12.6315 5.97005 12.6467 5.95896 12.6627 5.9489L13.1501 5.67364L13.4122 5.55751C13.4288 5.55023 13.4458 5.54364 13.4631 5.53809L13.7027 5.46148C13.7166 5.45732 13.7304 5.4535 13.7446 5.45004L14.2744 5.34014C14.2861 5.33806 14.2976 5.33633 14.3094 5.33494L14.5583 5.30617C14.5718 5.30443 14.5853 5.30339 14.5988 5.30305L14.8575 5.29369C14.8703 5.29334 14.8828 5.29334 14.8956 5.29369L15.4323 5.32315C15.452 5.32454 15.4721 5.32731 15.4919 5.33113L15.9901 5.42681C16.0105 5.43062 16.0306 5.43582 16.0504 5.44206L16.5468 5.6109L17.0405 5.81197L18.1918 6.30321L18.4244 6.3871C18.4608 6.39993 18.4941 6.41726 18.5256 6.43702L18.8786 6.51017L19.3383 6.53583L19.7914 6.51849L20.0458 6.49943L21.0564 6.40513C21.0692 6.40409 21.0817 6.40374 21.0945 6.40374H21.34C21.3531 6.40374 21.3663 6.40409 21.3795 6.40513L21.6249 6.42385C21.6385 6.42489 21.6516 6.42628 21.6648 6.42836L21.9089 6.46615C21.9252 6.46857 21.9414 6.47169 21.9574 6.47585L22.3439 6.59095C22.3616 6.59684 22.3793 6.60412 22.3966 6.61175L22.762 6.78925C22.7776 6.79722 22.7929 6.80589 22.8078 6.81525L23.1468 7.05099C23.1611 7.06139 23.1749 7.07283 23.1881 7.08462L23.5954 7.48225L23.8561 7.82685C23.8676 7.84245 23.8783 7.85909 23.888 7.87608L24.1324 8.32641C24.1404 8.34166 24.1473 8.35726 24.1539 8.37321L24.4268 9.11406L24.9346 10.8076L25.1038 11.2125L25.3091 11.5907L25.5687 11.9332L26.5564 13.1109L26.7162 13.3435C26.7235 13.3536 26.7297 13.364 26.736 13.3744L26.9974 13.8566C27.0029 13.8677 27.0078 13.8788 27.0123 13.8899L27.1991 14.4078C27.2023 14.4196 27.2057 14.4317 27.2085 14.4439L27.2369 14.5666C27.2397 14.5794 27.2425 14.5926 27.2446 14.6058L27.2633 14.7285C27.265 14.741 27.2667 14.7534 27.2674 14.7663ZM26.0055 16.0443L26.2097 15.4543L26.2465 15.0712L26.1979 14.6958L26.0575 14.3051L25.8457 13.914L25.5718 13.5379L25.2577 13.1614L24.6046 12.3931L24.4458 12.172C24.4354 12.157 24.4254 12.1418 24.4163 12.1262L24.1719 11.6759C24.166 11.6648 24.1612 11.654 24.156 11.6429L23.87 10.9222L23.2751 8.97733L23.1967 8.78285L22.9374 8.33286L22.6601 8.00768L22.2739 7.70746L21.9005 7.53863L21.524 7.45854L21.1122 7.44294L20.6216 7.47934L19.6111 7.57364C19.5982 7.57468 19.5858 7.57503 19.5729 7.57503L19.0443 7.56532L18.7777 7.54521C18.7645 7.54417 18.7517 7.54279 18.7388 7.54071L18.4934 7.50292C18.4806 7.50118 18.4677 7.49841 18.4553 7.49564L17.9647 7.38262C17.8562 7.35766 17.7643 7.29977 17.6953 7.2228L17.3455 7.09037L16.1769 6.58249L15.7626 6.44174L15.3244 6.3575L14.8762 6.33289L14.4456 6.36547L13.9991 6.45804L13.8056 6.52009L13.2447 6.81061L13.0911 6.93333L12.94 7.07651L12.6207 7.4315L12.3156 7.82013C12.2511 7.90229 12.1655 7.95672 12.0733 7.98792L11.312 8.77349L11.1133 8.95272C11.1026 8.96208 11.0918 8.97109 11.0808 8.97976L10.6713 9.28171L10.1998 9.56634L8.83464 10.2354L8.24598 10.6608L8.02654 10.9049L7.77936 11.2637L7.55852 11.7514L7.48468 12.044C7.4826 12.0565 7.48017 12.069 7.4774 12.0815L7.44343 12.3529L7.45175 12.6705L7.51276 13.1225L7.79842 14.321C7.80154 14.3335 7.80397 14.346 7.8057 14.3588L7.87469 14.8687L7.89549 15.1346C7.89688 15.1544 7.89723 15.1742 7.89653 15.1943L7.86706 15.7046C7.86602 15.7188 7.86429 15.733 7.86186 15.7472L7.77416 16.2447L7.64311 16.7727L7.39108 17.7527L7.28014 18.4412L7.26454 18.8642L7.36022 19.4854L7.46284 19.7624L7.73013 20.2492L8.07403 20.6409C8.08755 20.653 8.10003 20.6655 8.11217 20.679L8.22171 20.7775C8.23593 20.7882 8.24945 20.799 8.26262 20.8108L8.39228 20.9096L8.68037 21.0829L9.09915 21.2712L9.54047 21.4178L10.7722 21.8127L11.0229 21.9163C11.034 21.9212 11.0447 21.926 11.0554 21.9312L11.5058 22.1663C11.5255 22.177 11.5446 22.1892 11.563 22.2023L11.9922 22.539C12.0022 22.548 12.0119 22.5577 12.0213 22.5677L12.37 22.9453L13.6212 24.5063L13.945 24.8132L14.1038 24.9341L14.4865 25.163L14.8789 25.3342L15.0748 25.397L15.5189 25.4798L15.7224 25.5017L16.1557 25.4933L16.5787 25.4295L16.7853 25.3741L17.1996 25.2167L17.6007 25.0028L18.0063 24.7462L18.8657 24.1867L19.1073 24.0598C19.1209 24.0529 19.1344 24.0467 19.1486 24.0408L19.375 23.9468C19.3864 23.942 19.3979 23.9378 19.4097 23.9336L19.6371 23.8577C19.6509 23.8532 19.6648 23.8494 19.679 23.8459L20.1845 23.7367C20.197 23.7343 20.2098 23.7326 20.2223 23.7308L20.9901 23.6618L21.9809 23.5967L22.4119 23.5239L22.8355 23.3855L23.2116 23.1976L23.7181 22.8118L24.0357 22.4176L24.1993 22.1313L24.285 21.9441L24.355 21.7492L24.468 21.2968L24.5311 20.8572L24.5488 20.3754L24.5401 20.1299L24.4829 18.9595C24.4829 18.9464 24.4836 18.9328 24.4846 18.9197L24.494 18.7969C24.495 18.7817 24.4971 18.7664 24.4996 18.7512L24.5363 18.5213C24.5384 18.5061 24.5415 18.4908 24.5453 18.4759L24.5734 18.3626C24.5769 18.349 24.5807 18.3355 24.5852 18.3223L24.6608 18.0963C24.6684 18.0734 24.6777 18.0509 24.6885 18.0294L24.8837 17.6692L25.0268 17.4439C25.0352 17.4307 25.0442 17.4182 25.0535 17.4057L25.7909 16.4156L26.0055 16.0443Z" fill="currentColor"/>
        </g>

        <!--Стрелка назад-->

        <path id="arrow-back" d="M7.91664 5.41663L3.45116 9.88211C3.38607 9.9472 3.38607 10.0527 3.45116 10.1178L7.91664 14.5833M3.40234 9.99996H16.6666" stroke="currentColor" stroke-width="1.5" stroke-linecap="round"/>

        <!--Кнопки контроля-->

        <path id="plus" d="M4.16675 10H15.8334M10.0001 4.16669V15.8334" stroke="currentColor" stroke-width="1.5" stroke-linecap="round"/>

        <path id="minus" d="M4.16675 10H15.8334" stroke="currentColor" stroke-width="1.5" stroke-linecap="round"/>



        <!--Поиск-->


        <path id="search" d="M17.3556 17.3658C18.8279 15.8961 19.7388 13.8641 19.7388 11.6194C19.7388 7.13518 16.1036 3.5 11.6194 3.5C7.13518 3.5 3.5 7.13518 3.5 11.6194C3.5 16.1036 7.13518 19.7388 11.6194 19.7388C13.8589 19.7388 15.8866 18.8321 17.3556 17.3658ZM17.3556 17.3658L20.5 20.5" stroke="currentColor" stroke-width="1.5" stroke-linecap="round"/>


        <!--Список в хэдере по нажатию на кнопку Dinning option -->

        <g id="dine-in">
                <path fill-rule="evenodd" clip-rule="evenodd" d="M18.6803 2.18456C18.4412 2.21084 18.2617 2.41547 18.2669 2.65601V6.36975C18.2669 7.48786 19.068 8.43015 20.1238 8.64731V10.6347C19.586 10.8282 19.1953 11.3398 19.1953 11.9404V19.3678C19.1953 20.1313 19.8245 20.7605 20.588 20.7605C21.3515 20.7605 21.9806 20.1313 21.9806 19.3678V11.9404C21.9806 11.3398 21.5899 10.8282 21.0522 10.6347V8.64731C22.1079 8.43015 22.9091 7.48786 22.9091 6.36975V2.65601C22.9114 2.4886 22.8235 2.33288 22.6789 2.24848C22.5343 2.16409 22.3554 2.16409 22.2108 2.24848C22.0662 2.33288 21.9783 2.4886 21.9806 2.65601V6.36975C21.9806 6.98604 21.5979 7.50234 21.0522 7.68986V2.65601C21.0551 2.52232 21.0002 2.39389 20.9015 2.30359C20.8029 2.2133 20.6701 2.16991 20.5372 2.18456C20.298 2.21084 20.1186 2.41547 20.1238 2.65601V7.68986C19.5781 7.50234 19.1953 6.98604 19.1953 6.36975V2.65601C19.1982 2.52232 19.1433 2.39389 19.0447 2.30359C18.946 2.2133 18.8132 2.16991 18.6803 2.18456ZM3.4119 2.1918C2.71099 2.1918 2.11109 2.61981 1.71461 3.21451C1.31813 3.80925 1.09082 4.58855 1.09082 5.44131C1.09082 6.29408 1.31813 7.07338 1.71461 7.66812C2.02058 8.12706 2.44649 8.48525 2.94769 8.62556V10.6347C2.40993 10.8282 2.01925 11.3398 2.01925 11.9403V19.3678C2.01925 20.1313 2.6484 20.7605 3.4119 20.7605C4.1754 20.7605 4.80455 20.1313 4.80455 19.3678V11.9403C4.80455 11.3398 4.41387 10.8282 3.87612 10.6347V8.62556C4.37732 8.48525 4.80322 8.12706 5.1092 7.66812C5.50567 7.07338 5.73299 6.29408 5.73299 5.44131C5.73299 4.58855 5.50567 3.80925 5.1092 3.21451C4.71272 2.61981 4.11282 2.1918 3.4119 2.1918ZM4.34035 3.72961C4.06477 3.31625 3.7365 3.12033 3.41191 3.12033C3.08733 3.12033 2.75906 3.31625 2.48348 3.72961C2.2079 4.14297 2.01926 4.7559 2.01926 5.44141C2.01926 6.12692 2.2079 6.73985 2.48348 7.15321C2.75906 7.56657 3.08733 7.76249 3.41191 7.76249C3.7365 7.76249 4.06477 7.56657 4.34035 7.15321C4.61593 6.73985 4.80456 6.12692 4.80456 5.44141C4.80456 4.7559 4.61593 4.14297 4.34035 3.72961ZM12 4.97722C8.41614 4.97722 5.50093 7.89245 5.50093 11.4763C5.50093 15.0601 8.41614 17.9753 12 17.9753C15.5838 17.9753 18.499 15.0601 18.499 11.4763C18.499 7.89245 15.5838 4.97722 12 4.97722ZM17.5706 11.4763C17.5706 8.39421 15.082 5.90566 12 5.90566C8.91792 5.90566 6.42938 8.39421 6.42938 11.4763C6.42938 14.5583 8.91792 17.0469 12 17.0469C15.082 17.0469 17.5706 14.5583 17.5706 11.4763ZM11.9999 7.99453C10.0825 7.99453 8.51824 9.5588 8.51824 11.4762C8.51824 13.3935 10.0825 14.9578 11.9999 14.9578C13.9172 14.9578 15.4815 13.3935 15.4815 11.4762C15.4815 9.5588 13.9172 7.99453 11.9999 7.99453ZM14.5531 11.4762C14.5531 10.0606 13.4155 8.92297 11.9999 8.92297C10.5843 8.92297 9.44669 10.0606 9.44669 11.4762C9.44669 12.8917 10.5843 14.0294 11.9999 14.0294C13.4155 14.0294 14.5531 12.8917 14.5531 11.4762ZM3.41193 11.4761C3.67713 11.4761 3.87614 11.6751 3.87614 11.9403V19.3677C3.87614 19.633 3.67713 19.832 3.41193 19.832C3.14672 19.832 2.94771 19.633 2.94771 19.3677V11.9403C2.94771 11.6751 3.14672 11.4761 3.41193 11.4761ZM21.0521 11.9403C21.0521 11.6751 20.8531 11.4761 20.5879 11.4761C20.3227 11.4761 20.1237 11.6751 20.1237 11.9403V19.3677C20.1237 19.633 20.3227 19.832 20.5879 19.832C20.8531 19.832 21.0521 19.633 21.0521 19.3677V11.9403Z" fill="currentColor"/>
        </g>

        <path id="take-away" d="M5.67597 2.31824H19.6178M6.14077 2.31824V4.17715M19.1531 2.31824V4.17715M16.8295 6.50083C16.8295 9.58077 14.9569 12.0776 12.647 12.0776C10.337 12.0776 8.46441 9.58077 8.46441 6.50083M21.4768 20.9074H3.81714L5.21132 4.1772H20.0826L21.4768 20.9074Z" stroke="#828487" stroke-linecap="round" stroke-linejoin="round"/>

        <path id="delivery" fill-rule="evenodd" clip-rule="evenodd" d="M20.9875 8.57807C21.1978 8.47343 21.4421 8.48386 21.6423 8.60735C21.8425 8.73083 21.9616 8.94484 21.9616 9.1797V10.1097C21.9616 10.3446 21.8425 10.5586 21.6423 10.6824C21.5336 10.7494 21.4115 10.7834 21.289 10.7834C21.1864 10.7834 21.0834 10.7595 20.9875 10.7117L19.9427 10.1891V14.3824C21.0824 14.5466 21.9616 15.5268 21.9616 16.7108V20.0757C21.9616 20.2614 21.8109 20.4121 21.6251 20.4121H21.2886C21.2886 21.3398 20.5339 22.0945 19.6062 22.0945C18.6786 22.0945 17.9238 21.3398 17.9238 20.4121H14.559H11.8672H9.51178C9.51178 21.3398 8.75706 22.0945 7.82938 22.0945C6.9017 22.0945 6.14697 21.3398 6.14697 20.4121H5.13752H3.7916C3.60586 20.4121 3.45511 20.2614 3.45511 20.0757V18.7297C3.45511 17.8623 3.71185 17.0551 4.14928 16.3744H2.10919C1.92345 16.3744 1.77271 16.2236 1.77271 16.0379V14.6919C1.77271 14.5062 1.92345 14.3555 2.10919 14.3555H2.44567V9.30824C2.44567 9.1225 2.59641 8.97176 2.78215 8.97176H5.13752H6.48345H8.83882C9.02456 8.97176 9.1753 9.1225 9.1753 9.30824V14.3555H10.3664C10.0454 13.9978 9.84827 13.527 9.84827 13.0095V9.30824C9.84827 8.72646 10.0677 8.16655 10.4512 7.73821C10.0996 7.48989 9.81428 7.17158 9.60028 6.81053L9.5885 6.79068C9.54038 6.70824 9.49631 6.62345 9.45626 6.53664C9.44886 6.52049 9.4418 6.50433 9.43473 6.48818C9.39974 6.40877 9.36743 6.32836 9.33951 6.24558C9.33235 6.22483 9.32604 6.20374 9.31974 6.18268L9.31191 6.15675C9.28971 6.08407 9.26817 6.01173 9.25168 5.93736C9.24354 5.90122 9.23745 5.86473 9.23134 5.82814L9.23134 5.82813L9.22376 5.78359C9.22109 5.76808 9.21828 5.75261 9.21547 5.73715L9.21546 5.73712L9.21546 5.7371L9.21545 5.73707L9.21545 5.73705L9.21545 5.73703C9.20796 5.69586 9.20047 5.6547 9.19583 5.61266L9.19482 5.60694H9.1753C8.98956 5.60694 8.83882 5.45619 8.83882 5.27046C8.83882 3.4151 10.3483 1.90564 12.2036 1.90564C13.9456 1.90564 15.382 3.23609 15.5513 4.93397H16.9144V5.60694H15.232H15.2118C15.1169 6.469 14.6623 7.23955 13.9564 7.73788C14.1875 7.99562 14.3588 8.30081 14.4577 8.63527H17.5873C17.624 8.63527 17.6577 8.64537 17.6906 8.65614C17.9302 8.43641 18.2468 8.29879 18.5968 8.29879C19.1634 8.29879 19.6473 8.6521 19.8451 9.14908L20.9875 8.57807ZM12.8419 15.0285C14.0731 15.803 14.8955 17.1705 14.8955 18.7297H15.2319V17.3838V15.7014C15.2319 15.3303 14.9301 15.0285 14.559 15.0285H12.8419ZM10.5212 12.6729H13.886C13.886 12.8587 14.0367 13.0094 14.2225 13.0094H15.9049C16.6472 13.0094 17.2508 13.6131 17.2508 14.3553V17.0472H16.9143H15.9049V15.7013C15.9049 14.959 15.3012 14.3553 14.5589 14.3553H11.8671C11.1248 14.3553 10.5212 13.7517 10.5212 13.0094V12.6729ZM16.9144 17.7202H15.905V18.7296H18.218C18.0679 18.1499 17.5403 17.7202 16.9144 17.7202ZM18.903 18.7297C18.8014 18.1277 18.4336 17.6162 17.9238 17.3205V14.3554C17.9238 13.242 17.0183 12.3365 15.9049 12.3365H14.559V10.9906H17.5873C17.7253 10.9906 17.8437 10.9068 17.8956 10.788C18.1005 10.9142 18.339 10.9906 18.5968 10.9906C18.8431 10.9906 19.0709 10.9192 19.2697 10.8035V14.6919V18.7297H18.903ZM19.2697 9.64454C19.2697 9.2734 18.9679 8.97157 18.5967 8.97157C18.2256 8.97157 17.9238 9.2734 17.9238 9.64454C17.9238 10.0157 18.2256 10.3175 18.5967 10.3175C18.9679 10.3175 19.2697 10.0157 19.2697 9.64454ZM14.1908 9.30811H17.2508V10.3176H14.2225C14.0367 10.3176 13.886 10.4683 13.886 10.654V12H10.5212V9.30811C10.5212 8.77344 10.7685 8.28386 11.1988 7.96218H13.2073C13.5549 8.22194 13.7867 8.59914 13.8591 9.02782C13.8863 9.18966 14.0266 9.30811 14.1908 9.30811ZM10.0633 6.24759C10.1077 6.34349 10.1579 6.43669 10.2148 6.5262C10.2161 6.52788 10.2171 6.52956 10.2181 6.53124C10.277 6.62344 10.3423 6.71193 10.4139 6.79572C10.6081 6.47842 10.9395 5.9996 11.3739 5.60693H9.87288C9.8887 5.71528 9.91225 5.82228 9.94254 5.92692L9.94472 5.93332L9.94691 5.93971C9.97719 6.03998 10.0135 6.13823 10.0566 6.23346C10.0576 6.23581 10.0588 6.23817 10.06 6.24052L10.062 6.24467L10.0633 6.24759ZM13.4042 7.28934H11.003C10.9931 7.28344 10.983 7.27786 10.9728 7.27228L10.9728 7.27226L10.9727 7.27222C10.9575 7.26382 10.9422 7.25542 10.9277 7.24593C11.2675 6.65675 12.0445 5.60693 12.8766 5.60693H14.5351C14.4352 6.30917 14.0223 6.92291 13.4042 7.28934ZM14.8746 4.93386C14.7084 3.60779 13.5738 2.57849 12.2037 2.57849C10.8335 2.57849 9.69888 3.60779 9.53266 4.93386H12.8766H14.8746ZM8.50234 10.3177H6.81993V9.64476H8.50234V10.3177ZM6.14691 12.0001V9.64476H5.47394V12.0001C5.47394 12.1855 5.62502 12.3366 5.81043 12.3366C5.99583 12.3366 6.14691 12.1855 6.14691 12.0001ZM4.8011 9.64476V10.3177H3.11869V9.64476H4.8011ZM4.8011 10.9906H3.11869V14.3554H7.82944H8.5024V10.9906H6.81999V12.0001C6.81999 12.5566 6.36709 13.0095 5.81055 13.0095C5.25401 13.0095 4.8011 12.5566 4.8011 12.0001V10.9906ZM4.6792 15.7014H2.44563V15.0285H2.78212H5.5056C5.5024 15.0305 5.49946 15.0327 5.49651 15.035C5.49357 15.0373 5.49062 15.0396 5.48743 15.0416C5.19469 15.228 4.9255 15.447 4.68559 15.6957L4.6824 15.6986L4.6792 15.7014ZM5.09682 16.2421C4.49721 16.9003 4.12809 17.7714 4.12809 18.7297V19.7392H4.80105V19.4027C4.80105 17.362 6.46159 15.7014 8.50235 15.7014C10.5431 15.7014 12.2036 17.362 12.2036 19.4027V19.7392H14.2225V19.0662V18.7297C14.2225 16.689 12.562 15.0285 10.5212 15.0285H8.83883H7.82938C7.69883 15.0285 7.56928 15.0355 7.44007 15.0496C7.43795 15.0498 7.43583 15.0502 7.43368 15.0506L7.43366 15.0506C7.43137 15.0511 7.42904 15.0515 7.42662 15.0517C7.04471 15.0937 6.67323 15.1953 6.32531 15.3511L6.32278 15.3523L6.32026 15.3535C6.20687 15.4046 6.09583 15.4615 5.98782 15.5238C5.98395 15.5259 5.98017 15.5283 5.97638 15.5306C5.97259 15.533 5.96881 15.5354 5.96494 15.5375C5.86399 15.5968 5.76574 15.6607 5.67052 15.7293C5.66222 15.7354 5.65423 15.7414 5.64623 15.7475L5.63418 15.7566C5.54434 15.8229 5.45719 15.8935 5.3734 15.9682C5.3653 15.9753 5.35733 15.9827 5.34932 15.99L5.3493 15.99L5.34928 15.9901L5.34925 15.9901L5.33336 16.0046C5.25126 16.08 5.17252 16.159 5.09682 16.2421ZM7.82938 21.4216C7.27283 21.4216 6.81993 20.9687 6.81993 20.4121H8.83882C8.83882 20.9687 8.38592 21.4216 7.82938 21.4216ZM6.53083 19.7391H9.12746H11.5306V19.4026C11.5306 17.733 10.1719 16.3743 8.50228 16.3743C6.83266 16.3743 5.47394 17.733 5.47394 19.4026V19.7391H6.53083ZM14.8955 19.739V19.4025H15.5684H18.5968H19.2697V19.739H18.3081H14.8955ZM18.5968 20.4121C18.5968 20.9687 19.0497 21.4216 19.6063 21.4216C20.1628 21.4216 20.6157 20.9687 20.6157 20.4121H19.6063H18.5968ZM21.2886 16.7109V19.7392H20.9044H19.9427V19.0662V15.0624C20.7095 15.2186 21.2886 15.8983 21.2886 16.7109ZM20.3587 9.64464L21.2887 10.1097V9.17962L20.3587 9.64464Z" fill="#828487"/>

        <g id="reservation">

                <path fill-rule="evenodd" clip-rule="evenodd" d="M6.26549 9.73193H7.19309C7.93224 9.73193 8.53377 10.3337 8.53377 11.0726V11.9998C8.53377 12.7394 7.93224 13.3409 7.19309 13.3409H6.26549C5.52633 13.3409 4.9248 12.7396 4.9248 12.0002V11.0726C4.9248 10.3333 5.52633 9.73193 6.26549 9.73193ZM7.19337 12.5155C7.47688 12.5155 7.70787 12.2845 7.70787 12.0004V11.0728C7.70787 10.789 7.47688 10.5585 7.19337 10.5585H6.26577C5.98205 10.5585 5.75147 10.7893 5.75147 11.0728V12.0004C5.75147 12.2845 5.98226 12.5155 6.26577 12.5155H7.19337Z" fill="#828487"/>
                <path fill-rule="evenodd" clip-rule="evenodd" d="M17.8836 11.0726V12C17.8836 12.7396 17.2819 13.3411 16.5425 13.3409H15.6153C14.876 13.3409 14.2747 12.7396 14.2747 12.0002V11.0726C14.2747 10.3333 14.876 9.73193 15.6153 9.73193H16.5425C17.2819 9.73193 17.8836 10.3337 17.8836 11.0726ZM15.1009 11.0728V12.0004C15.1009 12.2845 15.3316 12.5155 15.6154 12.5155H16.5425C16.8267 12.5155 17.0575 12.2845 17.0575 12.0004V11.0728C17.0575 10.789 16.8267 10.5585 16.5425 10.5585H15.6154C15.3316 10.5585 15.1009 10.7893 15.1009 11.0728Z" fill="#828487"/>
                <path fill-rule="evenodd" clip-rule="evenodd" d="M10.9404 14.2H11.8684C12.608 14.2 13.2093 14.8015 13.2093 15.5408V16.4689C13.2093 17.2078 12.608 17.8089 11.8684 17.8089H10.9404C10.2012 17.8089 9.59989 17.2078 9.6001 16.4689V15.5408C9.6001 14.8015 10.2014 14.2 10.9404 14.2ZM11.8683 16.9829C12.1516 16.9829 12.3824 16.7523 12.3824 16.469V15.541C12.3824 15.2573 12.1516 15.0261 11.8683 15.0261H10.9403C10.6568 15.0261 10.4264 15.2573 10.4264 15.541V16.469C10.4264 16.7523 10.657 16.9829 10.9403 16.9829H11.8683Z" fill="#828487"/>
                <path fill-rule="evenodd" clip-rule="evenodd" d="M10.9404 9.73193H11.8684C12.608 9.73193 13.2093 10.3337 13.2093 11.0726V11.9998C13.2093 12.7394 12.608 13.3409 11.8684 13.3409H10.9404C10.2012 13.3409 9.59989 12.7396 9.6001 12.0002V11.0726C9.6001 10.3333 10.2014 9.73193 10.9404 9.73193ZM11.8683 12.5155C12.1516 12.5155 12.3824 12.2845 12.3824 12.0004V11.0728C12.3824 10.789 12.1516 10.5585 11.8683 10.5585H10.9403C10.6568 10.5585 10.4264 10.7893 10.4264 11.0728V12.0004C10.4264 12.2845 10.657 12.5155 10.9403 12.5155H11.8683Z" fill="#828487"/>
                <path fill-rule="evenodd" clip-rule="evenodd" d="M6.26549 14.2H7.19309C7.93224 14.2 8.53377 14.8015 8.53377 15.5408V16.4689C8.53377 17.2078 7.93224 17.8089 7.19309 17.8089H6.26549C5.52633 17.8089 4.9248 17.2078 4.9248 16.4689V15.5408C4.9248 14.8015 5.52633 14.2 6.26549 14.2ZM7.19337 16.9829C7.47688 16.9829 7.70787 16.7523 7.70787 16.469V15.541C7.70787 15.2573 7.47688 15.0261 7.19337 15.0261H6.26577C5.98205 15.0261 5.75147 15.2573 5.75147 15.541V16.469C5.75147 16.7523 5.98226 16.9829 6.26577 16.9829H7.19337Z" fill="#828487"/>
                <path fill-rule="evenodd" clip-rule="evenodd" d="M21.2188 18.6603C21.2188 19.3666 21.5054 20.0588 22.0049 20.5576C22.1364 20.69 22.1756 20.8877 22.1046 21.0596C22.0335 21.2322 21.8652 21.3442 21.6791 21.3442H19.3769C19.3769 21.8519 18.9636 22.265 18.4559 22.265C17.9477 22.265 17.5348 21.8515 17.5348 21.3442H15.2327C15.0466 21.3442 14.8782 21.2318 14.8069 21.0596C14.7358 20.8879 14.7758 20.6895 14.9073 20.5576C14.9107 20.5541 14.9141 20.5504 14.9174 20.5466L14.9238 20.5395L14.9276 20.5356H3.6228C2.66958 20.5356 1.8938 19.7602 1.8938 18.8064V4.97332C1.8938 4.01968 2.66958 3.24411 3.6228 3.24411H7.08123V1.94725C7.08123 1.7082 7.27433 1.51489 7.51337 1.51489C7.75263 1.51489 7.94594 1.7082 7.94573 1.94725V3.24411H15.7269V1.94725C15.7269 1.7082 15.9204 1.51489 16.159 1.51489C16.3985 1.51489 16.5916 1.7082 16.5916 1.94704V3.24432H19.1853C20.1385 3.24432 20.9143 4.01989 20.9143 4.97353H20.9147V15.486C21.108 15.8627 21.2188 16.2883 21.2188 16.7399V18.6603ZM3.62322 4.10893C3.14597 4.10893 2.7585 4.49682 2.7585 4.97301V7.56672H20.0502V4.97301C20.0502 4.4964 19.663 4.10851 19.1855 4.10851H16.5918V5.83772C16.5918 6.31433 16.2043 6.70243 15.7271 6.70243C15.2503 6.70243 14.8624 6.31412 14.8624 5.83772C14.8624 5.36132 15.2503 4.97322 15.7271 4.97322V4.10872H7.94593V5.83793C7.94593 6.31454 7.55825 6.70265 7.08122 6.70265C6.6044 6.70265 6.21693 6.31433 6.21693 5.83793C6.21693 5.36154 6.6044 4.97343 7.08122 4.97343V4.10893H3.62322ZM15.6934 18.661C15.6934 19.0087 15.6235 19.3523 15.4933 19.6712H3.62322C3.14597 19.6712 2.7585 19.2833 2.7585 18.8067V8.43181H20.05V14.4873C19.5988 14.1672 19.0494 13.9775 18.4563 13.9775C16.9329 13.9775 15.6934 15.217 15.6934 16.7404V18.661ZM16.6144 18.6609C16.6144 19.2791 16.451 19.8887 16.152 20.4236H20.7601C20.461 19.8887 20.2977 19.2791 20.2977 18.6609V16.7405C20.2977 15.7244 19.472 14.8988 18.4563 14.8988C17.4402 14.8988 16.6144 15.7244 16.6144 16.7405V18.6609Z" fill="#828487"/>
        </g>

        <g id="logo-login">
        
                <path d="M61.9487 28.306C61.9487 25.8875 62.4713 23.7364 63.5165 21.8527C64.5617 19.9458 66.0133 18.4692 67.8713 17.4227C69.7527 16.353 71.8778 15.8181 74.2469 15.8181C77.1501 15.8181 79.6353 16.5855 81.7024 18.1203C83.7695 19.6552 85.1515 21.7481 85.8482 24.3991H79.2985C78.8108 23.3759 78.114 22.5969 77.2082 22.062C76.3256 21.5272 75.3153 21.2597 74.1772 21.2597C72.3423 21.2597 70.8559 21.8993 69.7178 23.1783C68.5797 24.4573 68.0107 26.1665 68.0107 28.306C68.0107 30.4454 68.5797 32.1546 69.7178 33.4337C70.8559 34.7127 72.3423 35.3522 74.1772 35.3522C75.3153 35.3522 76.3256 35.0847 77.2082 34.5499C78.114 34.015 78.8108 33.236 79.2985 32.2128H85.8482C85.1515 34.8638 83.7695 36.9568 81.7024 38.4916C79.6353 40.0031 77.1501 40.7589 74.2469 40.7589C71.8778 40.7589 69.7527 40.2357 67.8713 39.1892C66.0133 38.1195 64.5617 36.6428 63.5165 34.7592C62.4713 32.8755 61.9487 30.7245 61.9487 28.306Z" fill="#19191C"/>
                <path d="M96.2553 40.8636C94.3507 40.8636 92.632 40.4566 91.0991 39.6427C89.5894 38.8288 88.3933 37.666 87.5107 36.1545C86.6513 34.6429 86.2217 32.8755 86.2217 30.8524C86.2217 28.8524 86.663 27.0967 87.5455 25.5851C88.4281 24.0503 89.6359 22.876 91.1688 22.062C92.7017 21.2481 94.4204 20.8412 96.325 20.8412C98.2295 20.8412 99.9482 21.2481 101.481 22.062C103.014 22.876 104.222 24.0503 105.104 25.5851C105.987 27.0967 106.428 28.8524 106.428 30.8524C106.428 32.8523 105.975 34.6196 105.07 36.1545C104.187 37.666 102.968 38.8288 101.411 39.6427C99.8785 40.4566 98.1598 40.8636 96.2553 40.8636ZM96.2553 35.701C97.3933 35.701 98.3572 35.2824 99.1469 34.4452C99.9598 33.6081 100.366 32.4104 100.366 30.8524C100.366 29.2943 99.9714 28.0967 99.1818 27.2595C98.4153 26.4223 97.463 26.0037 96.325 26.0037C95.1637 26.0037 94.1998 26.4223 93.4333 27.2595C92.6669 28.0734 92.2836 29.271 92.2836 30.8524C92.2836 32.4104 92.6553 33.6081 93.3985 34.4452C94.1649 35.2824 95.1172 35.701 96.2553 35.701Z" fill="#19191C"/>
                <path d="M106.314 30.8524C106.314 28.8292 106.72 27.0618 107.533 25.5503C108.369 24.0387 109.519 22.876 110.982 22.062C112.469 21.2481 114.164 20.8412 116.069 20.8412C118.508 20.8412 120.54 21.4807 122.166 22.7597C123.815 24.0387 124.895 25.8409 125.406 28.1664H119.065C118.531 26.6781 117.497 25.934 115.964 25.934C114.873 25.934 114.002 26.3642 113.351 27.2246C112.701 28.0618 112.376 29.271 112.376 30.8524C112.376 32.4337 112.701 33.6546 113.351 34.515C114.002 35.3522 114.873 35.7708 115.964 35.7708C117.497 35.7708 118.531 35.0266 119.065 33.5383H125.406C124.895 35.8173 123.815 37.6079 122.166 38.9102C120.517 40.2124 118.484 40.8636 116.069 40.8636C114.164 40.8636 112.469 40.4566 110.982 39.6427C109.519 38.8288 108.369 37.666 107.533 36.1545C106.72 34.6429 106.314 32.8755 106.314 30.8524Z" fill="#19191C"/>
                <path d="M125.317 30.8175C125.317 28.8176 125.689 27.0618 126.432 25.5503C127.199 24.0387 128.232 22.876 129.533 22.062C130.834 21.2481 132.285 20.8412 133.888 20.8412C135.258 20.8412 136.454 21.1202 137.476 21.6783C138.521 22.2364 139.323 22.969 139.88 23.8759V21.1202H145.838V40.5845H139.88V37.8288C139.3 38.7358 138.487 39.4683 137.441 40.0264C136.419 40.5845 135.223 40.8636 133.853 40.8636C132.274 40.8636 130.834 40.4566 129.533 39.6427C128.232 38.8055 127.199 37.6311 126.432 36.1196C125.689 34.5848 125.317 32.8174 125.317 30.8175ZM139.88 30.8524C139.88 29.3641 139.462 28.1897 138.626 27.3293C137.813 26.4688 136.814 26.0386 135.63 26.0386C134.445 26.0386 133.435 26.4688 132.599 27.3293C131.786 28.1664 131.379 29.3292 131.379 30.8175C131.379 32.3058 131.786 33.4918 132.599 34.3755C133.435 35.2359 134.445 35.6661 135.63 35.6661C136.814 35.6661 137.813 35.2359 138.626 34.3755C139.462 33.515 139.88 32.3407 139.88 30.8524Z" fill="#19191C"/>
                <path d="M49.706 19.605C48.8344 17.569 47.681 15.6715 46.2807 13.9709C44.211 11.3819 41.6281 9.27007 38.7019 7.77443C35.7757 6.2788 32.5726 5.43324 29.3035 5.29342C26.0345 5.1536 22.7735 5.72268 19.7351 6.96324C16.6969 8.20377 13.9502 10.0876 11.6759 12.4909C9.40154 14.894 7.65116 17.7621 6.53993 20.9063C5.42869 24.0503 4.98179 27.3993 5.22864 30.7325C5.47552 34.0659 6.41052 37.308 7.97216 40.2454C9.53379 43.183 11.6866 45.7494 14.289 47.7755C15.9588 49.1017 17.8039 50.1797 19.7694 50.9775C22.525 52.1313 25.4743 52.7255 28.4524 52.7272C34.5996 52.7134 40.4907 50.2099 44.8344 45.7656C49.178 41.3213 51.6197 35.299 51.6241 29.0185C51.6286 25.7789 50.9755 22.5736 49.706 19.605ZM28.4352 10.104C31.1097 10.1037 33.7517 10.7009 36.1763 11.8537C35.5851 12.1147 34.9634 12.297 34.3266 12.3961C32.2314 12.706 30.2905 13.6998 28.7935 15.2292C27.2965 16.7587 26.3237 18.7417 26.0204 20.8823C25.8874 22.0828 25.3529 23.1996 24.5073 24.0444C23.6618 24.8892 22.557 25.4099 21.3792 25.5191C19.284 25.8289 17.3431 26.8228 15.8461 28.3522C14.3491 29.8816 13.3763 31.8646 13.073 34.0052C12.9704 35.1467 12.4936 36.2195 11.7201 37.0497C10.3853 34.1685 9.78575 30.9889 9.97709 27.8072C10.1684 24.6255 11.1445 21.5449 12.8144 18.8521C14.4843 16.1594 16.7938 13.942 19.5281 12.4064C22.2623 10.8707 25.3323 10.0666 28.4524 10.069L28.4352 10.104ZM14.2719 41.2666C14.4774 41.0741 14.6829 40.8991 14.8884 40.6892C16.4121 39.18 17.3901 37.1878 17.6629 35.0376C17.7735 33.8288 18.3017 32.6999 19.1528 31.8531C19.972 30.982 21.0744 30.4468 22.2527 30.3483C24.3479 30.0384 26.2888 29.0446 27.7858 27.5151C29.2828 25.9857 30.2556 24.0028 30.5589 21.8621C30.633 20.598 31.164 19.4069 32.0489 18.5202C32.8882 17.666 34.0011 17.1503 35.183 17.0679C37.1078 16.7973 38.9029 15.9231 40.3208 14.5658C41.9353 15.9342 43.303 17.5804 44.3626 19.43C44.2975 19.5198 44.2229 19.602 44.14 19.675C43.3225 20.5537 42.2215 21.1007 41.0401 21.2147C38.9427 21.5192 36.9988 22.5113 35.5008 24.0416C34.003 25.5721 33.0319 27.558 32.7339 29.7009C32.6132 30.9054 32.0886 32.0303 31.2491 32.8849C30.4094 33.7396 29.3064 34.2714 28.127 34.3902C26.0256 34.6976 24.0775 35.6895 22.5717 37.2182C21.0662 38.7471 20.0833 40.7313 19.7694 42.8763C19.6772 43.7314 19.3897 44.5525 18.9302 45.2734C17.173 44.2075 15.5993 42.8539 14.2719 41.2666ZM28.4352 48.0205C26.6974 48.0224 24.9679 47.775 23.2974 47.2856C23.8689 46.1973 24.2403 45.0112 24.3934 43.7862C24.5135 42.5843 25.0357 41.4615 25.8718 40.6073C26.7079 39.7531 27.8069 39.2196 28.9833 39.0969C31.0816 38.7905 33.0264 37.7983 34.5269 36.2685C36.0271 34.7389 37.0024 32.7538 37.3066 30.6108C37.4267 29.4089 37.9488 28.2861 38.7849 27.4319C39.621 26.5776 40.72 26.0442 41.8964 25.9215C43.4755 25.7117 44.9805 25.111 46.2807 24.1718C47.0028 26.9677 47.0882 29.8953 46.5308 32.7302C45.9733 35.5651 44.7875 38.232 43.0646 40.5261C41.3417 42.82 39.1275 44.6805 36.5914 45.9644C34.0555 47.2483 31.2655 47.9218 28.4352 47.933V48.0205Z" fill="#FF5C00"/>
        </g>


        <!--Икноки для формы с авторизацией-->

        <g id="login-username">
                <path d="M15.4999 6.5C15.4999 8.433 13.9329 10 11.9999 10C10.0669 10 8.49993 8.433 8.49993 6.5C8.49993 4.567 10.0669 3 11.9999 3C13.9329 3 15.4999 4.567 15.4999 6.5Z" stroke="#19191C" stroke-width="1.5"/>
                <path d="M5.42407 17.4898C5.76687 15.1147 7.6056 13.1739 9.99892 12.9995C11.3663 12.8999 12.6383 12.8997 14.0031 12.999C16.3954 13.1729 18.2328 15.1137 18.5755 17.4878L18.6421 17.9495C18.8396 19.3178 17.8891 20.595 16.5145 20.7424C13.2884 21.0883 10.722 21.0843 7.49114 20.7397C6.11438 20.5928 5.16069 19.3146 5.35848 17.9442L5.42407 17.4898Z" stroke="#19191C" stroke-width="1.5"/>
        </g>
        <g id="login-password">
                <path d="M8.5 7.5V6.5C8.5 4.567 10.067 3 12 3V3C13.933 3 15.5 4.567 15.5 6.5V7.5" stroke="#19191C" stroke-width="1.5" stroke-linecap="round"/>
                <path d="M4.74926 9.8141C4.83974 8.96656 5.62072 8.29883 6.59873 8.22578C10.619 7.92549 13.4104 7.92461 17.3984 8.22393C18.3812 8.29769 19.1632 8.97213 19.2502 9.82416C19.6012 13.2631 19.5688 15.6912 19.2378 19.1589C19.1555 20.0204 18.3682 20.7066 17.3748 20.7796C13.375 21.0736 10.587 21.0729 6.63823 20.781C5.6424 20.7074 4.8551 20.0176 4.77375 19.1539C4.45047 15.7212 4.37852 13.2871 4.74926 9.8141Z" stroke="#19191C" stroke-width="1.5"/>
                <path d="M12 15.75C13.1046 15.75 14 14.8546 14 13.75C14 12.6454 13.1046 11.75 12 11.75C10.8954 11.75 10 12.6454 10 13.75C10 14.8546 10.8954 15.75 12 15.75ZM12 15.75V17.25" stroke="#19191C" stroke-width="1.5" stroke-linecap="round"/>
        </g>


        <!--Иконки на станице reservation в нижней части бронирования стола-->
        <path id="place-order" d="M15.7454 4.50126C16.849 4.50126 17.4009 4.50126 17.8279 4.74202C18.1269 4.91057 18.3845 5.16724 18.5597 5.47099C18.81 5.90485 18.835 6.47099 18.8851 7.60325C19.0487 11.3011 19.0341 14.009 18.8636 17.7532C18.8169 18.7779 18.7936 19.2902 18.5691 19.7046C18.4149 19.9894 18.1743 20.2504 17.9075 20.4225C17.5194 20.6727 17.0414 20.7161 16.0852 20.8029C13.1731 21.0673 10.8447 21.0651 7.91978 20.7999C6.96461 20.7134 6.48703 20.6701 6.09939 20.4206C5.83297 20.2492 5.59239 19.9888 5.43791 19.7048C5.21315 19.2916 5.18868 18.7815 5.13973 17.7612C4.96088 14.0326 4.95209 11.3236 5.12278 7.59999C5.17467 6.46809 5.20061 5.90214 5.45104 5.46906C5.62645 5.16572 5.88383 4.90977 6.18267 4.7415C6.60933 4.50126 7.16069 4.50126 8.2634 4.50126M9.60724 6.00251H14.4045C15.1994 6.00251 15.8437 5.33037 15.8437 4.50125C15.8437 3.67213 15.1994 3 14.4045 3H9.60724C8.8124 3 8.16805 3.67213 8.16805 4.50125C8.16805 5.33037 8.8124 6.00251 9.60724 6.00251Z" stroke="#FF5C00" stroke-width="1.5"/>

        <path id="order-close" d="M2.08334 2.08333L7.91668 7.91666M7.91668 2.08333L2.08334 7.91666" stroke="white" stroke-width="1.5" stroke-linecap="round"/>

</svg>